<svg width="15" height="15" viewBox="0 0 15 15" fill="none" xmlns="http://www.w3.org/2000/svg">
<path d="M7.5 0C3.3645 0 0 3.3645 0 7.5C0 11.6355 3.3645 15 7.5 15C11.6355 15 15 11.6355 15 7.5C15 3.3645 11.6355 0 7.5 0ZM7.5 13.4041C4.24449 13.4041 1.59572 10.7557 1.59572 7.5C1.59572 4.24434 4.24449 1.59587 7.5 1.59587C10.7555 1.59587 13.4043 4.24434 13.4043 7.5C13.4043 10.7557 10.7555 13.4041 7.5 13.4041Z" fill="#F8F8F8"/>
<path d="M11.4087 7.26844H8.03818V3.21585C8.03818 2.87482 7.76167 2.59831 7.42064 2.59831C7.0796 2.59831 6.8031 2.87482 6.8031 3.21585V7.88598C6.8031 8.22702 7.0796 8.50352 7.42064 8.50352H11.4087C11.7497 8.50352 12.0262 8.22702 12.0262 7.88598C12.0262 7.54495 11.7497 7.26844 11.4087 7.26844Z" fill="#F8F8F8"/>
</svg>
