<svg width="47" height="37" viewBox="0 0 47 37" fill="none" xmlns="http://www.w3.org/2000/svg">
<path d="M46.3956 28.8039H44.9272V20.5918C44.9272 19.6309 44.6373 18.6882 44.0994 17.8906L40.4192 12.4399C39.5188 11.1104 38.0203 10.3127 36.4128 10.3127H30.7083C30.0376 10.3127 29.4997 10.8566 29.4997 11.5214V28.8041H20.1574C21.0457 29.5715 21.656 30.6411 21.8312 31.8497H31.6812C32.0316 29.4507 34.0984 27.5955 36.594 27.5955C39.0898 27.5955 41.1504 29.4507 41.501 31.8497H46.3957C46.7281 31.8497 47 31.5778 47 31.2454V29.4083C46.9999 29.076 46.7281 28.8039 46.3956 28.8039ZM40.3769 18.9782H32.8474C32.5151 18.9782 32.2432 18.7123 32.2432 18.3739V14.1983C32.2432 13.8659 32.5151 13.594 32.8474 13.594H37.4341C37.6335 13.594 37.8147 13.6907 37.9296 13.8478L40.8724 18.0295C41.1504 18.4284 40.8664 18.9782 40.3769 18.9782ZM36.594 28.8039C34.5153 28.8039 32.8354 30.4899 32.8354 32.5686C32.8354 34.6414 34.5153 36.3273 36.594 36.3273C38.6667 36.3273 40.3527 34.6414 40.3527 32.5686C40.3527 30.49 38.6667 28.8039 36.594 28.8039ZM36.594 34.4482C35.5546 34.4482 34.7147 33.6022 34.7147 32.5689C34.7147 31.5294 35.5546 30.6894 36.594 30.6894C37.6333 30.6894 38.4734 31.5294 38.4734 32.5689C38.4734 33.6022 37.6334 34.4482 36.594 34.4482ZM5.25554 28.8039C4.92317 28.8039 4.65123 29.076 4.65123 29.4083V31.2454C4.65123 31.5778 4.92317 31.8497 5.25554 31.8497H12.0115C12.1867 30.6411 12.797 29.5715 13.6794 28.8041H5.25554V28.8039ZM16.9183 28.8039C14.8456 28.8039 13.1596 30.4899 13.1596 32.5686C13.1596 34.6414 14.8456 36.3273 16.9183 36.3273C18.997 36.3273 20.677 34.6414 20.677 32.5686C20.677 30.49 18.9971 28.8039 16.9183 28.8039ZM16.9183 34.4482C15.8789 34.4482 15.039 33.6022 15.039 32.5689C15.039 31.5294 15.8789 30.6894 16.9183 30.6894C17.9577 30.6894 18.7977 31.5294 18.7977 32.5689C18.7977 33.6022 17.9577 34.4482 16.9183 34.4482ZM25.9586 6.56609H18.9548C19.2992 7.58734 19.4805 8.68109 19.4805 9.81116C19.4805 15.5157 14.8396 20.1566 9.13511 20.1566C8.09566 20.1566 7.08654 19.9996 6.13779 19.7155V26.393C6.13779 26.7253 6.40973 26.9973 6.74211 26.9973H27.1671C27.4996 26.9973 27.7714 26.7253 27.7714 26.393V8.37897C27.7713 7.37584 26.9616 6.56609 25.9586 6.56609ZM9.13649 0.672729C4.09053 0.672729 0 4.76319 0 9.80917C0 14.8551 4.09053 18.9457 9.13649 18.9457C14.1825 18.9457 18.2731 14.8551 18.2731 9.80917C18.2731 4.76319 14.1825 0.672729 9.13649 0.672729ZM9.13649 16.8665C5.23888 16.8665 2.07913 13.7069 2.07913 9.80917C2.07913 5.91147 5.23888 2.75179 9.13649 2.75179C13.0342 2.75179 16.1939 5.91154 16.1939 9.80917C16.1939 13.7069 13.0342 16.8665 9.13649 16.8665ZM11.8318 11.2997C11.754 11.2997 11.6743 11.2896 11.5952 11.2684L8.65052 10.4747C8.25517 10.3679 7.98016 10.0091 7.98016 9.59951V5.06731C7.98016 4.5669 8.38618 4.16087 8.88659 4.16087C9.38701 4.16087 9.79303 4.5669 9.79303 5.06731V8.90495L12.0673 9.51803C12.5507 9.64843 12.8368 10.146 12.7064 10.6292C12.5973 11.0335 12.2314 11.2997 11.8318 11.2997Z" fill="#FF8000"/>
</svg>
