<svg width="21" height="18" viewBox="0 0 21 18" fill="none" xmlns="http://www.w3.org/2000/svg">
<g clip-path="url(#clip0)">
<path d="M4.00624 3.27087C2.97693 3.27087 1.98799 3.27087 0.999038 3.27087C0.373378 3.27087 0 2.954 0 2.44293C0.0100913 1.93186 0.373378 1.63543 1.00913 1.63543C1.99808 1.63543 2.98702 1.63543 3.97597 1.63543C4.30898 0.357751 4.77318 0 6.05478 0C6.32724 0 6.58962 0 6.86208 0C8.14368 0 8.60787 0.357751 8.94089 1.63543C10.6766 1.63543 12.4224 1.63543 14.1783 1.63543C16.1259 1.63543 18.0836 1.63543 20.0312 1.63543C20.5862 1.63543 20.9193 1.89097 20.9899 2.34071C21.0706 2.85179 20.6771 3.27087 20.1019 3.27087C18.6083 3.28109 17.1047 3.27087 15.6112 3.27087C13.3911 3.27087 11.1711 3.27087 8.91061 3.27087C8.82988 3.87393 8.62806 4.45656 8.05285 4.67121C7.00336 5.06984 5.9135 5.06984 4.864 4.67121C4.35944 4.49744 4.1677 4.05792 4.00624 3.27087Z" fill="#FF8000"/>
<path d="M10.464 8.17718C10.7062 6.98127 11.231 6.55197 12.3915 6.54175C12.7245 6.54175 13.0676 6.54175 13.4006 6.54175C14.6015 6.55197 15.1161 6.96083 15.3785 8.17718C16.8115 8.17718 18.2545 8.17718 19.6976 8.17718C19.8288 8.17718 19.97 8.16696 20.1012 8.17718C20.6361 8.19762 20.9993 8.53493 20.9893 9.01534C20.9792 9.47531 20.6361 9.81261 20.1214 9.81261C18.7288 9.82284 17.3261 9.81261 15.9335 9.81261C15.7519 9.81261 15.5702 9.81261 15.3886 9.81261C15.0758 11.0699 14.6015 11.448 13.3602 11.448C13.0878 11.448 12.8254 11.448 12.5529 11.448C11.2209 11.448 10.787 11.121 10.4237 9.81261C8.38522 9.81261 6.33669 9.81261 4.27806 9.81261C3.1882 9.81261 2.08825 9.81261 0.998388 9.81261C0.372727 9.81261 -0.0107422 9.50597 -0.0107422 8.9949C-0.0107422 8.48382 0.352545 8.16696 0.988297 8.16696C3.94505 8.16696 6.91189 8.16696 9.86864 8.16696C10.0604 8.17718 10.242 8.17718 10.464 8.17718Z" fill="#FF8000"/>
<path d="M8.91996 16.3544C8.66768 17.5503 8.14293 17.9898 6.98243 17.9898C6.64941 17.9898 6.30631 17.9898 5.9733 17.9898C4.77243 17.9898 4.25777 17.5707 3.9954 16.3544C2.9459 16.3544 1.88632 16.3646 0.836819 16.3544C0.332254 16.3441 -0.0108511 15.9864 -0.000759758 15.5162C0.00933155 15.0562 0.352436 14.7394 0.867093 14.7189C0.99828 14.7189 1.13956 14.7189 1.27075 14.7189C2.17896 14.7189 3.08718 14.7189 3.98531 14.7189C4.30823 13.4412 4.76234 13.0937 6.06412 13.0835C6.3164 13.0835 6.56868 13.0835 6.82097 13.0835C8.16311 13.0835 8.59704 13.4208 8.95023 14.7189C10.9281 14.7189 12.906 14.7189 14.894 14.7189C16.5793 14.7189 18.2544 14.7189 19.9397 14.7189C20.6158 14.7189 20.9993 15.0051 20.9993 15.5264C21.0093 16.0477 20.6259 16.3544 19.9498 16.3544C16.4683 16.3544 12.9868 16.3544 9.50525 16.3544C9.31352 16.3544 9.13188 16.3544 8.91996 16.3544Z" fill="#FF8000"/>
</g>
<defs>
<clipPath id="clip0">
<rect width="21" height="18" fill="white"/>
</clipPath>
</defs>
</svg>
