<svg width="28" height="28" viewBox="0 0 28 28" fill="none" xmlns="http://www.w3.org/2000/svg">
<g clip-path="url(#clip0)">
<path d="M3.67403 24.8759C3.67403 24.8759 3.65002 25.4799 4.24002 25.4799C4.97402 25.4799 11.051 25.4719 11.051 25.4719L11.061 19.8909C11.061 19.8909 10.965 18.9709 11.858 18.9709H14.684C15.74 18.9709 15.675 19.8909 15.675 19.8909L15.663 25.4539C15.663 25.4539 21.425 25.4539 22.33 25.4539C23.079 25.4539 23.045 24.7019 23.045 24.7019V14.4129L13.649 6.05493L3.67403 14.4129V24.8759Z" fill="#F8F8F8"/>
<path d="M0 13.635C0 13.635 0.847 15.196 2.694 13.635L13.732 4.29704L24.081 13.577C26.219 15.119 27.02 13.577 27.02 13.577L13.732 1.54004L0 13.635Z" fill="#F8F8F8"/>
</g>
<defs>
<clipPath id="clip0">
<rect width="27.02" height="27.02" fill="white"/>
</clipPath>
</defs>
</svg>
