<svg width="45" height="45" viewBox="0 0 45 45" fill="none" xmlns="http://www.w3.org/2000/svg">
<path d="M36.3615 8.79935L33.549 1.7681C33.122 0.7004 32.0878 0 30.9377 0H14.0627C12.9126 0 11.8784 0.7004 11.4514 1.7681L8.63888 8.79935C8.37037 9.46951 8.37037 10.218 8.63888 10.8882L11.4514 17.9194C11.8784 18.9871 12.9126 19.6875 14.0627 19.6875H15.4689C15.4689 21.2407 16.7282 22.5 18.2814 22.5H19.6877V23.5801C19.6877 26.9248 21.5176 29.979 24.3486 31.3618C25.8105 32.0767 26.7189 33.5303 26.7189 35.1555C26.7189 37.4029 24.7469 39.375 22.4995 39.375C20.1738 39.375 18.2814 37.4826 18.2814 35.1562C18.2814 33.603 17.0222 32.3438 15.4689 32.3438C13.9157 32.3438 12.6564 33.603 12.6564 35.1562C12.6564 40.5842 17.0722 45 22.4995 45C27.8354 45 32.3439 40.4915 32.3439 35.1555C32.3439 31.3639 30.2263 27.9739 26.8178 26.3081C25.9032 25.8611 25.3127 24.7907 25.3127 23.5801V22.5H26.7189C28.2721 22.5 29.5314 21.2407 29.5314 19.6875H30.9377C32.0878 19.6875 33.122 18.9871 33.549 17.9194L36.3615 10.8882C36.63 10.218 36.63 9.46951 36.3615 8.79935ZM15.9378 15.4688H12.9729L16.7228 4.21875H19.6877L15.9378 15.4688ZM22.1077 15.4688H19.1428L22.8927 4.21875H25.8576L22.1077 15.4688ZM28.2776 15.4688H25.3127L29.0626 4.21875H32.0275L28.2776 15.4688Z" fill="#FF8000"/>
</svg>
