<svg width="14" height="22" viewBox="0 0 14 22" fill="none" xmlns="http://www.w3.org/2000/svg">
<path d="M13.8998 4.3019L12.4998 0.864402C12.2872 0.342418 11.7724 0 11.1999 0H2.80006C2.22755 0 1.7128 0.342418 1.50022 0.864402L0.100241 4.3019C-0.0334136 4.62954 -0.0334136 4.99546 0.100241 5.3231L1.50022 8.7606C1.7128 9.28258 2.22755 9.625 2.80006 9.625H3.50005C3.50005 10.3843 4.12689 11 4.90003 11H5.60002V11.528C5.60002 13.1632 6.51088 14.6564 7.92009 15.3325C8.64778 15.6819 9.09997 16.3926 9.09997 17.1872C9.09997 18.2859 8.11832 19.25 6.99965 19.25C5.842 19.25 4.90003 18.3248 4.90003 17.1875C4.90003 16.4282 4.27319 15.8125 3.50005 15.8125C2.72691 15.8125 2.10007 16.4282 2.10007 17.1875C2.10007 19.8412 4.29813 22 6.99965 22C9.65572 22 11.8999 19.7958 11.8999 17.1872C11.8999 15.3334 10.8458 13.6761 9.14919 12.8618C8.69393 12.6432 8.39998 12.1199 8.39998 11.528V11H9.09997C9.87311 11 10.5 10.3843 10.5 9.625H11.1999C11.7724 9.625 12.2872 9.28258 12.4998 8.7606L13.8998 5.3231C14.0334 4.99546 14.0334 4.62954 13.8998 4.3019ZM3.73341 7.5625H2.25757L4.12418 2.0625H5.60002L3.73341 7.5625ZM6.80461 7.5625H5.32877L7.19538 2.0625H8.67123L6.80461 7.5625ZM9.87582 7.5625H8.39998L10.2666 2.0625H11.7424L9.87582 7.5625Z" fill="#FF8000"/>
</svg>
