<svg width="12" height="14" viewBox="0 0 12 14" fill="none" xmlns="http://www.w3.org/2000/svg">
<path d="M5.99965 0C3.1579 0 0.845703 2.3122 0.845703 5.15424C0.845703 5.89555 0.997433 6.60334 1.29645 7.25811C2.58508 10.0779 5.05575 13.0551 5.78245 13.9003C5.83689 13.9635 5.91627 13.9999 5.9998 13.9999C6.08333 13.9999 6.1627 13.9635 6.21715 13.9003C6.94356 13.0552 9.41422 10.0782 10.7033 7.25811C11.0024 6.60334 11.154 5.89555 11.154 5.15424C11.1537 2.3122 8.84155 0 5.99965 0ZM5.99965 7.83136C4.52347 7.83136 3.32238 6.63027 3.32238 5.15409C3.32238 3.67777 4.52347 2.47668 5.99965 2.47668C7.47583 2.47668 8.67692 3.67777 8.67692 5.15409C8.67707 6.63027 7.47598 7.83136 5.99965 7.83136Z" fill="#D7423B"/>
</svg>
