<svg width="17" height="17" viewBox="0 0 17 17" fill="none" xmlns="http://www.w3.org/2000/svg">
<path d="M8.49975 0C5.04905 0 2.24138 2.80767 2.24138 6.25872C2.24138 7.15888 2.42562 8.01834 2.78872 8.81342C4.35348 12.2375 7.35358 15.8526 8.236 16.8789C8.30211 16.9556 8.39849 16.9998 8.49992 16.9998C8.60135 16.9998 8.69774 16.9556 8.76385 16.8789C9.64592 15.8528 12.646 12.2379 14.2113 8.81342C14.5746 8.01834 14.7586 7.15888 14.7586 6.25872C14.7583 2.80767 11.9506 0 8.49975 0ZM8.49975 9.50951C6.70724 9.50951 5.24878 8.05105 5.24878 6.25854C5.24878 4.46586 6.70724 3.0074 8.49975 3.0074C10.2923 3.0074 11.7507 4.46586 11.7507 6.25854C11.7509 8.05105 10.2924 9.50951 8.49975 9.50951Z" fill="#F8F8F8"/>
</svg>
