<svg width="34" height="34" viewBox="0 0 34 34" fill="none" xmlns="http://www.w3.org/2000/svg">
<path d="M16.9995 0C10.0981 0 4.48271 5.61534 4.48271 12.5174C4.48271 14.3178 4.8512 16.0367 5.57739 17.6268C8.70692 24.475 14.7071 31.7052 16.4719 33.7578C16.6042 33.9113 16.7969 33.9997 16.9998 33.9997C17.2027 33.9997 17.3954 33.9113 17.5277 33.7578C19.2918 31.7056 25.292 24.4757 28.4226 17.6268C29.1491 16.0367 29.5172 14.3178 29.5172 12.5174C29.5165 5.61534 23.9012 0 16.9995 0ZM16.9995 19.019C13.4144 19.019 10.4975 16.1021 10.4975 12.5171C10.4975 8.93173 13.4144 6.0148 16.9995 6.0148C20.5845 6.0148 23.5014 8.93173 23.5014 12.5171C23.5017 16.1021 20.5848 19.019 16.9995 19.019Z" fill="#6F8287"/>
</svg>
