<svg width="41" height="41" viewBox="0 0 41 41" fill="none" xmlns="http://www.w3.org/2000/svg">
<path d="M18.4561 39.9408C18.4561 39.5064 18.4561 39.151 18.4561 38.7957C18.4561 34.1165 18.4561 29.4571 18.4561 24.7779C18.4561 23.3958 18.2269 23.1589 16.9086 23.1589C14.6542 23.1589 12.3806 23.1589 10.1262 23.1589C8.48315 23.1589 8.2921 23.3564 8.2921 25.0148C8.2921 29.615 8.2921 34.2349 8.2921 38.8351C8.2921 39.1905 8.2921 39.5459 8.2921 39.9803C6.84009 39.9803 5.48362 40.0197 4.12714 39.9605C3.28651 39.921 3.17188 39.23 3.17188 38.5192C3.17188 35.3011 3.17188 32.0632 3.17188 28.845C3.17188 25.9427 3.17188 23.0602 3.17188 20.1579C3.17188 19.8026 3.17188 19.4472 3.17188 18.9931C4.79583 18.9141 6.17141 18.4205 7.2222 17.0187C8.36852 18.4798 9.85873 18.9931 11.5973 18.9931C13.3168 18.9733 14.7879 18.4995 15.9533 16.999C17.1761 18.381 18.6663 18.9931 20.4431 18.9733C22.2199 18.9536 23.7674 18.4798 25.0284 16.9793C26.1556 18.4403 27.6267 18.9931 29.3844 18.9733C31.1038 18.9536 32.5941 18.5587 33.7595 17.0187C34.8103 18.3613 36.1667 18.9536 37.7907 18.9931C37.8098 19.3287 37.848 19.5854 37.848 19.842C37.848 26.002 37.848 32.1421 37.848 38.3021C37.848 39.7631 37.5996 40.0197 36.1667 40.0197C30.4925 40.0197 24.8373 40.0197 19.163 40.0197C18.9911 40 18.8 39.9803 18.4561 39.9408ZM32.7278 28.4501C32.7278 27.1273 32.7087 25.8243 32.7278 24.5015C32.7469 23.613 32.3457 23.1589 31.4668 23.1589C29.2315 23.1589 27.0153 23.1589 24.78 23.1589C23.9585 23.1589 23.5572 23.5933 23.5572 24.4422C23.5572 27.1076 23.5572 29.7729 23.5572 32.4383C23.5572 33.2478 23.9393 33.6624 24.7227 33.6624C26.9771 33.6624 29.2506 33.6624 31.505 33.6821C32.3266 33.6821 32.7278 33.2675 32.7278 32.4186C32.7278 31.0957 32.7278 29.7729 32.7278 28.4501Z" fill="#FF8000"/>
<path d="M18.4368 0.0197594C19.7169 0.0197594 20.9396 -0.0197273 22.1814 0.059246C22.3916 0.0789894 22.7164 0.552829 22.7546 0.829236C23.1176 3.88945 23.4233 6.94967 23.7672 10.0296C23.8818 11.076 23.9965 12.1224 24.1111 13.1688C24.3403 15.2419 22.9839 16.8213 20.9778 16.8806C18.5132 16.9398 17.0803 15.9329 16.9657 13.9783C16.9084 13.2083 17.0612 12.4186 17.1376 11.6288C17.5198 8.07504 17.9019 4.52124 18.284 0.967439C18.284 0.651546 18.3604 0.375139 18.4368 0.0197594Z" fill="#FF8000"/>
<path d="M16.2972 0.0197355C16.0106 2.72457 15.7623 5.29121 15.4757 7.85784C15.2464 9.99012 14.998 12.1027 14.7688 14.2349C14.5968 15.9131 13.6225 16.8411 11.9985 16.8608C11.8075 16.8608 11.6164 16.8608 11.4254 16.8608C9.03719 16.8608 7.96729 15.4393 8.59776 13.0898C9.34287 10.306 10.088 7.5222 10.8331 4.73839C11.1961 3.41559 11.5782 2.09279 11.903 0.750239C12.0367 0.197426 12.2851 -7.80634e-06 12.82 0.0197355C13.9473 0.0394789 15.0936 0.0197355 16.2972 0.0197355Z" fill="#FF8000"/>
<path d="M24.7031 0.0197369C26.0214 0.0197369 27.2441 -6.47775e-06 28.4287 0.0394802C28.6579 0.0394802 28.9827 0.355374 29.04 0.592294C30.2246 4.89634 31.4091 9.18065 32.4981 13.5044C32.9757 15.3801 31.7721 16.8411 29.8807 16.8411C29.212 16.8411 28.5433 16.8213 27.9128 16.6634C26.9767 16.4067 26.3844 15.6367 26.2698 14.6693C25.7348 9.83218 25.2381 4.99506 24.7031 0.0197369Z" fill="#FF8000"/>
<path d="M31.0664 0.0592193C32.1363 0.0592193 33.168 -0.078984 34.1424 0.118449C34.6964 0.236909 35.3842 0.769979 35.6135 1.30305C37.3903 5.23197 39.0906 9.18064 40.7337 13.1688C41.4979 14.9852 40.3325 16.7423 38.4028 16.8608C36.1866 16.9793 35.3651 16.3672 34.7728 14.156C33.5883 9.7532 32.4038 5.37018 31.2192 0.967413C31.181 0.691006 31.1428 0.394856 31.0664 0.0592193Z" fill="#FF8000"/>
<path d="M9.97391 0.0596286C9.53448 1.71807 9.11417 3.29754 8.69385 4.85726C7.81501 8.11491 6.95527 11.3726 6.05732 14.6302C5.44595 16.8612 2.61836 17.7102 0.898882 16.2097C0.0773536 15.4989 -0.247437 14.3538 0.211091 13.2679C1.91146 9.22054 3.63094 5.1929 5.40774 1.20474C5.637 0.691415 6.30569 0.197832 6.84063 0.0991153C7.83411 -0.0785747 8.8658 0.0596286 9.97391 0.0596286Z" fill="#FF8000"/>
</svg>
