<svg width="15" height="15" viewBox="0 0 15 15" fill="none" xmlns="http://www.w3.org/2000/svg">
<g clip-path="url(#clip0)">
<path d="M5.46875 11.0076V13.9063C5.46875 14.1088 5.59875 14.2882 5.79125 14.352C5.83937 14.3676 5.88875 14.3751 5.9375 14.3751C6.08375 14.3751 6.225 14.3063 6.315 14.1838L8.01062 11.8763L5.46875 11.0076Z" fill="#F8F8F8"/>
<path d="M14.8027 0.0860912C14.659 -0.0157839 14.4702 -0.0295339 14.314 0.0523411L0.251476 7.39609C0.0852256 7.48297 -0.0128995 7.66047 0.000850553 7.84734C0.0152256 8.03484 0.139601 8.19484 0.316476 8.25547L4.22585 9.59172L12.5515 2.47297L6.10898 10.2348L12.6609 12.4742C12.7096 12.4905 12.7609 12.4992 12.8121 12.4992C12.8971 12.4992 12.9815 12.4761 13.0559 12.4311C13.1746 12.3586 13.2552 12.2367 13.2759 12.0998L14.9946 0.537341C15.0202 0.362341 14.9465 0.188591 14.8027 0.0860912Z" fill="#F8F8F8"/>
</g>
<defs>
<clipPath id="clip0">
<rect width="15" height="15" fill="white"/>
</clipPath>
</defs>
</svg>
