<svg width="17" height="17" viewBox="0 0 17 17" fill="none" xmlns="http://www.w3.org/2000/svg">
<path d="M16.9638 13.1719C16.9158 13.027 16.6098 12.8135 16.0462 12.5321C15.8936 12.4434 15.676 12.3228 15.3945 12.1698C15.1128 12.0169 14.8571 11.8759 14.6278 11.7471C14.3981 11.6183 14.1828 11.4936 13.9818 11.373C13.9496 11.3489 13.849 11.2786 13.68 11.1616C13.5108 11.045 13.3681 10.9584 13.2511 10.9019C13.1344 10.8458 13.0197 10.8176 12.907 10.8176C12.746 10.8176 12.5449 10.9323 12.3035 11.1616C12.0622 11.3911 11.8407 11.6405 11.6396 11.9103C11.4384 12.1801 11.225 12.4294 10.9999 12.6589C10.7744 12.8884 10.5891 13.003 10.4444 13.003C10.3717 13.003 10.2811 12.9827 10.1726 12.9428C10.0641 12.9026 9.9815 12.8681 9.92483 12.8403C9.86867 12.8119 9.77229 12.7558 9.63535 12.671C9.49816 12.5865 9.42186 12.5402 9.40579 12.5321C8.30305 11.9202 7.35729 11.2199 6.56834 10.4313C5.77965 9.64232 5.07923 8.69671 4.46748 7.5939C4.45945 7.57779 4.41305 7.50129 4.3286 7.36453C4.24401 7.22764 4.18764 7.13118 4.15947 7.07468C4.13131 7.0184 4.0971 6.93585 4.05692 6.82721C4.01674 6.71857 3.99657 6.62807 3.99657 6.55555C3.99657 6.41075 4.1113 6.22553 4.34073 6.00013C4.57012 5.77486 4.81973 5.56147 5.08929 5.36038C5.35907 5.1593 5.60842 4.93788 5.83789 4.69649C6.06728 4.45498 6.18197 4.25386 6.18197 4.09291C6.18197 3.98029 6.1538 3.86548 6.09752 3.74881C6.04118 3.63188 5.95466 3.4892 5.83789 3.32008C5.72108 3.15106 5.65067 3.05054 5.62647 3.01818C5.50586 2.8171 5.38123 2.60181 5.25228 2.37239C5.12334 2.14302 4.98259 1.88734 4.82958 1.60566C4.6767 1.3241 4.55604 1.10669 4.4674 0.953779C4.18582 0.390451 3.97255 0.0844505 3.82761 0.036326C3.77124 0.0121791 3.68666 0 3.57408 0C3.35662 0 3.07293 0.0401742 2.7228 0.120776C2.37254 0.201252 2.09693 0.28566 1.89566 0.374339C1.49318 0.543283 1.06659 1.03425 0.615761 1.84708C0.20524 2.60354 0 3.35226 0 4.0927C0 4.30985 0.014083 4.52112 0.042249 4.72656C0.070415 4.93179 0.120742 5.16323 0.193271 5.42086C0.265674 5.67839 0.324078 5.86971 0.36823 5.99429C0.412425 6.11896 0.494935 6.34228 0.615719 6.66436C0.736334 6.98634 0.808863 7.18345 0.833011 7.25589C1.11471 8.04474 1.44877 8.74897 1.8351 9.3688C2.47074 10.399 3.33818 11.4637 4.43691 12.5625C5.53568 13.6611 6.60023 14.5285 7.63062 15.1643C8.2504 15.5506 8.95493 15.8846 9.7437 16.1665C9.81619 16.1905 10.0133 16.2629 10.3352 16.3839C10.6572 16.5046 10.8806 16.5871 11.0053 16.6314C11.13 16.6757 11.3214 16.7341 11.5787 16.8067C11.8366 16.8792 12.0679 16.9295 12.2731 16.9579C12.4785 16.9857 12.6898 17 12.907 17C13.6474 17 14.3962 16.7946 15.1529 16.3842C15.9657 15.9336 16.4566 15.5069 16.6256 15.1042C16.7145 14.9031 16.7987 14.6274 16.8792 14.2772C16.9599 13.9271 17 13.6435 17 13.4261C17.0002 13.3131 16.9881 13.2287 16.9638 13.1719Z" fill="#6F8287"/>
</svg>
