<svg width="13" height="14" viewBox="0 0 13 14" fill="none" xmlns="http://www.w3.org/2000/svg">
<path d="M12.5508 10.8474C12.5152 10.7281 12.2889 10.5523 11.8719 10.3205C11.7589 10.2475 11.598 10.1482 11.3897 10.0222C11.1813 9.89625 10.9921 9.78017 10.8225 9.67409C10.6525 9.56805 10.4933 9.46531 10.3445 9.36602C10.3207 9.34614 10.2463 9.28822 10.1212 9.19189C9.996 9.09584 9.89043 9.02456 9.80392 8.97806C9.71759 8.93185 9.63267 8.90858 9.54928 8.90858C9.4302 8.90858 9.28145 9.0031 9.10285 9.19189C8.92425 9.38093 8.76042 9.58626 8.6116 9.80852C8.46276 10.0307 8.3049 10.236 8.13832 10.4249C7.97148 10.6139 7.8344 10.7084 7.72733 10.7084C7.67358 10.7084 7.60655 10.6917 7.52624 10.6588C7.44595 10.6256 7.38487 10.5973 7.34294 10.5744C7.30139 10.551 7.23008 10.5048 7.12877 10.4349C7.02726 10.3653 6.97082 10.3272 6.95893 10.3205C6.14305 9.81664 5.44333 9.23992 4.85962 8.59052C4.27611 7.94074 3.75789 7.16199 3.30529 6.2538C3.29935 6.24053 3.26502 6.17753 3.20254 6.06491C3.13996 5.95217 3.09825 5.87274 3.07741 5.82621C3.05657 5.77986 3.03126 5.71187 3.00153 5.62241C2.97181 5.53294 2.95688 5.45841 2.95688 5.39868C2.95688 5.27944 3.04177 5.1269 3.21152 4.94128C3.38123 4.75576 3.5659 4.58003 3.76534 4.41443C3.96493 4.24884 4.14942 4.06649 4.31919 3.8677C4.48891 3.66881 4.57376 3.50318 4.57376 3.37063C4.57376 3.27789 4.55293 3.18334 4.51128 3.08725C4.4696 2.99096 4.40558 2.87346 4.31919 2.73419C4.23277 2.59499 4.18068 2.51221 4.16278 2.48556C4.07354 2.31997 3.98133 2.14267 3.88593 1.95374C3.79053 1.76484 3.6864 1.55428 3.57319 1.32231C3.46008 1.09044 3.37081 0.911395 3.30523 0.785465C3.0969 0.321548 2.93911 0.0695474 2.83188 0.0299155C2.79017 0.0100299 2.72759 0 2.6443 0C2.48341 0 2.27352 0.0330847 2.01448 0.0994629C1.75534 0.165737 1.55142 0.235249 1.40252 0.308279C1.10474 0.447409 0.789119 0.851739 0.455574 1.52113C0.151848 2.14409 0 2.76069 0 3.37046C0 3.54929 0.0104194 3.72328 0.0312581 3.89246C0.0520969 4.06147 0.0893313 4.25208 0.142993 4.46423C0.19656 4.67633 0.239771 4.83388 0.272437 4.93647C0.305135 5.03914 0.36618 5.22306 0.455543 5.48829C0.54478 5.75346 0.598442 5.91578 0.616308 5.97544C0.824727 6.62508 1.07188 7.20504 1.35771 7.71548C1.82799 8.56391 2.46977 9.44073 3.28267 10.3456C4.0956 11.2504 4.88322 11.9646 5.64555 12.4883C6.1041 12.8064 6.62535 13.0814 7.20893 13.3136C7.26256 13.3334 7.4084 13.3929 7.64654 13.4926C7.88478 13.592 8.05008 13.66 8.14232 13.6964C8.2346 13.7329 8.37618 13.781 8.56658 13.8408C8.75738 13.9005 8.92847 13.9419 9.08032 13.9653C9.23226 13.9882 9.38861 14 9.54932 14C10.0971 14 10.6511 13.8309 11.2109 13.4929C11.8123 13.1218 12.1755 12.7704 12.3005 12.4387C12.3663 12.2732 12.4286 12.0461 12.4881 11.7577C12.5479 11.4694 12.5775 11.2358 12.5775 11.0568C12.5777 10.9637 12.5687 10.8942 12.5508 10.8474Z" fill="#F8F8F8"/>
</svg>
