<svg width="42" height="41" viewBox="0 0 42 41" fill="none" xmlns="http://www.w3.org/2000/svg">
<path d="M29.8971 18.7917C23.7745 18.7917 18.793 23.7732 18.793 29.8959C18.793 36.0186 23.7745 41.0001 29.8971 41.0001C36.0198 41.0001 41.0013 36.0186 41.0013 29.8959C41.0013 23.7732 36.0198 18.7917 29.8971 18.7917ZM35.4527 27.178L29.4735 34.0113C28.8226 34.7544 27.678 34.792 26.981 34.0933L23.5643 30.6766C22.8964 30.0087 22.8964 28.929 23.5643 28.261C24.2323 27.5931 25.312 27.5931 25.9799 28.261L28.1051 30.3862L32.8816 24.9264C33.5034 24.2191 34.5831 24.144 35.2921 24.7658C36.001 25.3876 36.0745 26.4673 35.4527 27.178V27.178Z" fill="#6F8287"/>
<path d="M35.875 0H23.9167C22.0546 0 20.2438 0.785833 18.9625 2.13542L1.40083 20.3975C0.495417 21.3542 0 22.6013 0 23.9167C0 25.2833 0.529583 26.5817 1.50333 27.5383L13.4617 39.4967C14.4183 40.4704 15.7167 41 17.0833 41C18.0229 41 18.9454 40.7438 19.7313 40.2654C18.8942 39.4283 18.1425 38.5058 17.5275 37.4979C16.9467 37.6688 16.2975 37.515 15.8704 37.0879L3.91208 25.1296C3.5875 24.805 3.41667 24.3779 3.41667 23.9167C3.41667 23.4725 3.5875 23.0625 3.87792 22.755L21.4396 4.49292C22.0888 3.7925 22.96 3.41667 23.9167 3.41667H35.875C36.8146 3.41667 37.5833 4.18542 37.5833 5.125V17.0833C37.5833 17.2371 37.5663 17.4079 37.5492 17.5617C38.5913 18.2108 39.5479 18.9796 40.385 19.8679C40.795 18.9967 41 18.04 41 17.0833V5.125C41 2.30625 38.6938 0 35.875 0Z" fill="#6F8287"/>
<path d="M32.4596 11.9583C30.5753 11.9583 29.043 10.426 29.043 8.54166C29.043 6.65737 30.5753 5.125 32.4596 5.125C34.3439 5.125 35.8763 6.65737 35.8763 8.54166C35.8763 10.426 34.3439 11.9583 32.4596 11.9583Z" fill="#6F8287"/>
</svg>
