<svg width="46" height="38" viewBox="0 0 46 38" fill="none" xmlns="http://www.w3.org/2000/svg">
<path d="M17.2277 16.4161H19.2869V22.8199C19.2869 23.4716 19.8364 24 20.5142 24H25.7727C26.4505 24 27 23.4716 27 22.8199V10.1801C27 9.52836 26.4505 9 25.7727 9H21.1716C20.7853 9 20.4215 9.17489 20.1897 9.47203L16.2459 14.528C15.6394 15.295 16.2261 16.4224 17.2277 16.4161V16.4161Z" fill="#6F8287"/>
<path d="M45.326 21.4067L42.3984 19.6958C42.1322 19.5402 41.8574 19.4139 41.5778 19.313C43.7226 18.7613 45.3141 16.7905 45.3141 14.4501V11.0284C45.3141 10.275 44.7107 9.66425 43.9664 9.66425H40.5865C40.2794 9.66425 39.9791 9.69417 39.6872 9.74856C41.2755 8.18593 41.6804 5.6792 40.5201 3.6453L38.8306 0.682301C38.4585 0.02995 37.6345 -0.193594 36.9899 0.182738L34.062 1.89378C31.6956 3.27652 30.8814 6.35093 32.2472 8.74688C32.2473 8.74706 32.2477 8.74761 32.2475 8.74743C32.2472 8.74688 33.9376 11.7102 33.9377 11.7103C35.0418 13.6407 35.6275 15.8469 35.6301 18.0882V18.1031C35.6301 18.1043 35.6303 18.1056 35.6303 18.1069C34.9303 35.0672 11.0635 35.0541 10.3697 18.1069C10.3697 18.1056 10.3699 18.1043 10.3699 18.1031V18.0882C10.3725 15.8469 10.9582 13.6407 12.0623 11.7103C12.0623 11.7102 13.7528 8.74688 13.7525 8.74743C13.7524 8.74761 13.7527 8.74706 13.7528 8.74688C15.1187 6.35084 14.3044 3.27652 11.938 1.89378L9.01009 0.182738C8.36546 -0.193594 7.54142 0.02995 7.16937 0.682301L5.47987 3.6453C4.31963 5.6792 4.72455 8.18593 6.31281 9.74856C6.0209 9.69417 5.72065 9.66425 5.41347 9.66425H2.03355C1.28929 9.66425 0.6859 10.275 0.6859 11.0284V14.4501C0.6859 16.7905 2.2773 18.7613 4.42223 19.313C4.14263 19.4139 3.8678 19.5402 3.6016 19.6958L0.674041 21.4067C0.0295026 21.7834 -0.191333 22.6176 0.180709 23.27L1.87094 26.2331C3.03055 28.2672 5.37717 29.1657 7.50844 28.5548C7.316 28.7834 7.14036 29.0316 6.98672 29.3008L5.29721 32.2642C4.92517 32.9166 5.14601 33.7509 5.79054 34.1275L8.71792 35.8382C11.0923 37.2264 14.1197 36.4013 15.4885 34.0018C15.4885 34.0018 16.0576 33.0041 16.5354 32.1665C17.6375 32.6877 18.8104 33.08 20.0354 33.324L17.7167 35.6712C17.1904 36.2038 17.1904 37.0676 17.7167 37.6004C18.2429 38.1331 19.0962 38.1331 19.6225 37.6004L23 34.1814L26.3776 37.6004C26.9038 38.1331 27.757 38.1333 28.2834 37.6004C28.8097 37.0677 28.8097 36.2039 28.2834 35.6712L25.9647 33.324C27.1897 33.08 28.3625 32.6876 29.4647 32.1665C29.9425 33.004 30.5116 34.0018 30.5116 34.0018C31.8804 36.4013 34.9078 37.2265 37.2822 35.8382L40.2095 34.1275C40.8541 33.7508 41.0749 32.9166 40.7029 32.2642L39.0133 29.3008C38.8597 29.0316 38.684 28.7834 38.4916 28.5548C40.6227 29.1656 42.9695 28.2672 44.1291 26.2331L45.8193 23.27C46.1913 22.6176 45.9705 21.7834 45.326 21.4067V21.4067Z" fill="#6F8287"/>
</svg>
