<svg width="11" height="13" viewBox="0 0 11 13" fill="none" xmlns="http://www.w3.org/2000/svg">
<path d="M9.54688 1.625H7.3125V1.21875C7.3125 0.546736 6.76576 0 6.09375 0H4.46875C3.79674 0 3.25 0.546736 3.25 1.21875V1.625H1.01562C0.455609 1.625 0 2.08061 0 2.64062V4.0625C0 4.28685 0.181898 4.46875 0.40625 4.46875H0.628266L0.97924 11.8392C1.01024 12.4901 1.54497 13 2.19659 13H8.36591C9.01756 13 9.55228 12.4901 9.58326 11.8392L9.93423 4.46875H10.1562C10.3806 4.46875 10.5625 4.28685 10.5625 4.0625V2.64062C10.5625 2.08061 10.1069 1.625 9.54688 1.625ZM4.0625 1.21875C4.0625 0.994754 4.24475 0.8125 4.46875 0.8125H6.09375C6.31775 0.8125 6.5 0.994754 6.5 1.21875V1.625H4.0625V1.21875ZM0.8125 2.64062C0.8125 2.52863 0.903627 2.4375 1.01562 2.4375H9.54688C9.65887 2.4375 9.75 2.52863 9.75 2.64062V3.65625C9.6248 3.65625 1.33131 3.65625 0.8125 3.65625V2.64062ZM8.77167 11.8006C8.76134 12.0175 8.5831 12.1875 8.36591 12.1875H2.19659C1.97938 12.1875 1.80113 12.0175 1.79083 11.8006L1.44168 4.46875H9.12082L8.77167 11.8006Z" fill="#D7423B"/>
<path d="M5.28125 11.375C5.5056 11.375 5.6875 11.1931 5.6875 10.9688V5.6875C5.6875 5.46315 5.5056 5.28125 5.28125 5.28125C5.0569 5.28125 4.875 5.46315 4.875 5.6875V10.9688C4.875 11.1931 5.05687 11.375 5.28125 11.375Z" fill="#D7423B"/>
<path d="M7.3125 11.375C7.53685 11.375 7.71875 11.1931 7.71875 10.9688V5.6875C7.71875 5.46315 7.53685 5.28125 7.3125 5.28125C7.08815 5.28125 6.90625 5.46315 6.90625 5.6875V10.9688C6.90625 11.1931 7.08812 11.375 7.3125 11.375Z" fill="#D7423B"/>
<path d="M3.25 11.375C3.47435 11.375 3.65625 11.1931 3.65625 10.9688V5.6875C3.65625 5.46315 3.47435 5.28125 3.25 5.28125C3.02565 5.28125 2.84375 5.46315 2.84375 5.6875V10.9688C2.84375 11.1931 3.02562 11.375 3.25 11.375Z" fill="#D7423B"/>
</svg>
