<svg width="12" height="12" viewBox="0 0 12 12" fill="none" xmlns="http://www.w3.org/2000/svg">
<g clip-path="url(#clip0)">
<path d="M9.857 5.99997C9.62031 5.99997 9.42843 6.19184 9.42843 6.42854V10.7142C9.42843 10.9509 9.23656 11.1428 8.99986 11.1428H1.2857C1.049 11.1428 0.857123 10.9509 0.857123 10.7142V2.14287C0.857123 1.90618 1.049 1.7143 1.2857 1.7143H6.42849C6.66519 1.7143 6.85706 1.52243 6.85706 1.28573C6.85706 1.04903 6.66519 0.857178 6.42849 0.857178H1.2857C0.575626 0.857178 0 1.4328 0 2.14287V10.7142C0 11.4243 0.575626 11.9999 1.2857 11.9999H8.99988C9.70995 11.9999 10.2856 11.4243 10.2856 10.7142V6.42852C10.2856 6.19184 10.0937 5.99997 9.857 5.99997Z" fill="#9C9C9C"/>
<path d="M11.5203 0.480708C11.2125 0.172945 10.7952 7.86281e-05 10.36 0.000128851C9.92451 -0.00112671 9.5067 0.172041 9.19984 0.480985L3.55475 6.1256C3.50792 6.17278 3.47259 6.23014 3.45147 6.29317L2.59435 8.86456C2.51954 9.08913 2.64095 9.33181 2.86552 9.40659C2.90909 9.4211 2.95472 9.42851 3.00062 9.42856C3.04663 9.42848 3.09235 9.4211 3.13605 9.40671L5.70744 8.54959C5.7706 8.5285 5.82798 8.49299 5.87501 8.44588L11.5201 2.80081C12.1608 2.16018 12.1609 1.12142 11.5203 0.480708ZM10.9141 2.19523L5.34273 7.76659L3.67818 8.32243L4.23231 6.66002L9.8058 1.08868C10.1122 0.782872 10.6085 0.783375 10.9143 1.08978C11.0604 1.23616 11.1427 1.43431 11.1434 1.6411C11.1439 1.849 11.0613 2.04848 10.9141 2.19523Z" fill="#9C9C9C"/>
</g>
<defs>
<clipPath id="clip0">
<rect width="12" height="12" fill="white"/>
</clipPath>
</defs>
</svg>
