<svg width="26" height="26" viewBox="0 0 26 26" fill="none" xmlns="http://www.w3.org/2000/svg">
<g clip-path="url(#clip0)">
<path d="M8.29394 20.2233C6.79481 20.2233 5.57959 21.4386 5.57959 22.9376C5.57959 24.4368 6.79487 25.652 8.29394 25.652C9.79307 25.652 11.0083 24.4367 11.0083 22.9376C11.0084 21.4386 9.79307 20.2233 8.29394 20.2233ZM8.29394 24.4456C7.46111 24.4456 6.78598 23.7705 6.78598 22.9377C6.78598 22.1048 7.46111 21.4297 8.29394 21.4297C9.12678 21.4297 9.8019 22.1048 9.8019 22.9377C9.80196 23.7705 9.12678 24.4456 8.29394 24.4456Z" fill="#282A30"/>
<path d="M19.7549 20.2233C18.2558 20.2233 17.0405 21.4386 17.0405 22.9376C17.0405 24.4368 18.2558 25.652 19.7549 25.652C21.254 25.652 22.4692 24.4367 22.4692 22.9376C22.4692 21.4386 21.254 20.2233 19.7549 20.2233ZM19.7549 24.4456C18.922 24.4456 18.2469 23.7705 18.2469 22.9377C18.2469 22.1048 18.922 21.4297 19.7549 21.4297C20.5877 21.4297 21.2628 22.1048 21.2628 22.9377C21.2629 23.7705 20.5877 24.4456 19.7549 24.4456Z" fill="#282A30"/>
<path d="M25.877 4.38948C25.7514 4.25226 25.5796 4.16636 25.3945 4.14818L5.76052 3.87674L5.21765 2.21794C4.83521 1.10905 3.7968 0.360434 2.62389 0.348022H0.603196C0.27005 0.348022 0 0.618072 0 0.951218C0 1.28436 0.27005 1.55441 0.603196 1.55441H2.62389C3.27974 1.5689 3.85724 1.99003 4.07159 2.61002L7.90187 14.1612L7.6003 14.8549C7.26393 15.7223 7.36495 16.6986 7.87174 17.4788C8.37368 18.245 9.21812 18.7179 10.1337 18.7455H21.8659C22.199 18.7455 22.4691 18.4754 22.4691 18.1423C22.4691 17.8091 22.199 17.5391 21.8659 17.5391H10.1337C9.61662 17.5262 9.14065 17.2541 8.86696 16.8152C8.59634 16.3817 8.54075 15.8476 8.71618 15.3675L8.95748 14.8247L21.6547 13.4976C23.0494 13.344 24.1967 12.3296 24.5199 10.9642L25.9676 4.9021C26.0329 4.72753 25.9982 4.5312 25.877 4.38948ZM23.3437 10.6928C23.1479 11.5718 22.4016 12.2201 21.5039 12.2913L8.95748 13.5881L6.15261 5.08313L24.6405 5.35457L23.3437 10.6928Z" fill="#282A30"/>
</g>
<defs>
<clipPath id="clip0">
<rect width="26" height="26" fill="white"/>
</clipPath>
</defs>
</svg>
