<svg width="32" height="32" viewBox="0 0 32 32" fill="none" xmlns="http://www.w3.org/2000/svg">
<g clip-path="url(#clip0)">
<path d="M29.6577 2.90912H5.81816C5.74637 2.90912 5.68084 2.93612 5.61355 2.95637L5.02759 1.03084C4.84125 0.4185 4.27643 0 3.63634 0H0.727296C0.325637 0 0 0.325637 0 0.727296V2.18182C0 2.58348 0.325637 2.90912 0.727296 2.90912H2.559L7.10305 17.8416L5.40594 19.8216C4.73516 20.6041 4.43312 21.6823 4.74184 22.6656C5.13668 23.9232 6.24662 24.7272 7.52632 24.7272H28.3637C28.7653 24.7272 29.091 24.4016 29.091 23.9999V22.5454C29.091 22.1438 28.7653 21.8181 28.3637 21.8181H7.52626L9.83169 19.1285C9.88964 19.0609 9.93226 18.9845 9.97623 18.909H24.0696C25.1969 18.909 26.2227 18.258 26.7027 17.2381L31.7777 6.45375C31.9233 6.14339 32 5.79894 32 5.45728V5.2513C32 3.95782 30.9513 2.90912 29.6577 2.90912Z" fill="#6F8287"/>
<path d="M8.72729 32.0001C10.334 32.0001 11.6364 30.6977 11.6364 29.091C11.6364 27.4843 10.334 26.1819 8.72729 26.1819C7.12063 26.1819 5.81818 27.4843 5.81818 29.091C5.81818 30.6977 7.12063 32.0001 8.72729 32.0001Z" fill="#6F8287"/>
<path d="M26.1818 32.0001C27.7885 32.0001 29.0909 30.6977 29.0909 29.091C29.0909 27.4843 27.7885 26.1819 26.1818 26.1819C24.5752 26.1819 23.2727 27.4843 23.2727 29.091C23.2727 30.6977 24.5752 32.0001 26.1818 32.0001Z" fill="#6F8287"/>
</g>
<defs>
<clipPath id="clip0">
<rect width="32" height="32" fill="white"/>
</clipPath>
</defs>
</svg>
