<svg width="45" height="43" viewBox="0 0 45 43" fill="none" xmlns="http://www.w3.org/2000/svg">
<path d="M24.9482 0.439209C18.1698 0.439209 12.1705 3.82311 8.53905 8.987C9.2906 9.4773 10.0232 10.1496 10.7317 11.014C13.4408 6.96318 17.8212 4.12112 22.8894 3.51016L24.948 6.99377L27.0066 3.51009C34.7971 4.44899 40.9896 10.6412 41.929 18.4317L38.4448 20.4906L41.9291 22.5496C41.3011 27.7581 38.3182 32.2423 34.0863 34.9299C34.3559 35.5444 34.5077 36.1727 34.5346 36.8205C34.5544 37.2938 34.5055 37.7411 34.4074 38.1658C40.7066 34.781 45 28.1289 45 20.491C45 9.43414 36.0051 0.439209 24.9482 0.439209ZM30.0652 33.4625C25.4428 29.7476 24.1502 31.5737 22.0529 33.6708C20.5886 35.1355 16.8832 32.0768 13.6837 28.8771C10.484 25.6771 7.42582 21.9722 8.88994 20.5077C10.9874 18.4106 12.813 17.1173 9.09707 12.4961C5.38236 7.87325 2.90604 11.4224 0.874349 13.4542C-1.47124 15.799 0.750746 24.537 9.38678 33.1744C18.024 41.8105 26.7619 44.031 29.1061 41.6871C31.1376 39.6552 34.6877 37.1792 30.0652 33.4625ZM15.9872 23.629C15.9872 19.5202 20.7975 18.7882 20.7975 17.1848C20.7975 16.4068 20.1747 16.0802 19.5987 16.0802C18.5401 16.0802 17.9491 17.2627 17.9491 17.2627L15.9255 15.9087C15.9255 15.9087 16.953 13.5116 19.848 13.5116C21.6691 13.5116 23.6458 14.5546 23.6458 16.9205C23.6458 20.3916 19.1629 21.0612 19.0849 22.4932H23.8173V24.8278H16.112C16.034 24.3921 15.9872 24.0032 15.9872 23.629ZM24.9552 20.4852L29.2519 13.6981H32.5828V19.878H33.9057V22.1347H32.5828V24.828H29.8896V22.1347H24.9553V20.4852H24.9552ZM29.8895 19.878V17.3874C29.8895 16.7802 29.983 16.1419 29.983 16.1419H29.9519C29.9519 16.1419 29.7187 16.827 29.407 17.294L27.7263 19.8469V19.8781L29.8895 19.878Z" fill="#6F8287"/>
</svg>
