<svg width="14" height="14" viewBox="0 0 14 14" fill="none" xmlns="http://www.w3.org/2000/svg">
<path d="M11.5962 8.90379C10.8882 8.19585 10.0456 7.67176 9.12619 7.3545C10.1109 6.6763 10.7578 5.54126 10.7578 4.25781C10.7578 2.18576 9.07205 0.5 7 0.5C4.92795 0.5 3.24219 2.18576 3.24219 4.25781C3.24219 5.54126 3.88912 6.6763 4.87384 7.3545C3.95445 7.67176 3.11178 8.19585 2.40381 8.90379C1.17613 10.1315 0.5 11.7638 0.5 13.5H1.51562C1.51562 10.4759 3.9759 8.01562 7 8.01562C10.0241 8.01562 12.4844 10.4759 12.4844 13.5H13.5C13.5 11.7638 12.8239 10.1315 11.5962 8.90379ZM7 7C5.48796 7 4.25781 5.76988 4.25781 4.25781C4.25781 2.74575 5.48796 1.51562 7 1.51562C8.51204 1.51562 9.74219 2.74575 9.74219 4.25781C9.74219 5.76988 8.51204 7 7 7Z" fill="#292F3E"/>
</svg>
