<svg width="41" height="41" viewBox="0 0 41 41" fill="none" xmlns="http://www.w3.org/2000/svg">
<g clip-path="url(#clip0)">
<path d="M29.8957 18.7917C23.773 18.7917 18.7915 23.7732 18.7915 29.8959C18.7915 36.0186 23.773 41.0001 29.8957 41.0001C36.0184 41.0001 40.9999 36.0186 40.9999 29.8959C40.9999 23.7732 36.0184 18.7917 29.8957 18.7917ZM35.4512 27.178L29.472 34.0113C28.8211 34.7544 27.6766 34.792 26.9796 34.0933L23.5629 30.6766C22.8949 30.0087 22.8949 28.929 23.5629 28.261C24.2308 27.5931 25.3105 27.5931 25.9785 28.261L28.1036 30.3862L32.8801 24.9264C33.502 24.2191 34.5816 24.144 35.2906 24.7658C35.9996 25.3876 36.073 26.4673 35.4512 27.178Z" fill="white"/>
<path d="M35.875 0H23.9167C22.0546 0 20.2438 0.785833 18.9625 2.13542L1.40083 20.3975C0.495417 21.3542 0 22.6012 0 23.9167C0 25.2833 0.529583 26.5817 1.50333 27.5383L13.4617 39.4967C14.4183 40.4704 15.7167 41 17.0833 41C18.0229 41 18.9454 40.7438 19.7313 40.2654C18.8942 39.4283 18.1425 38.5058 17.5275 37.4979C16.9467 37.6688 16.2975 37.515 15.8704 37.0879L3.91208 25.1296C3.5875 24.805 3.41667 24.3779 3.41667 23.9167C3.41667 23.4725 3.5875 23.0625 3.87792 22.755L21.4396 4.49292C22.0888 3.7925 22.96 3.41667 23.9167 3.41667H35.875C36.8146 3.41667 37.5833 4.18542 37.5833 5.125V17.0833C37.5833 17.2371 37.5662 17.4079 37.5492 17.5617C38.5913 18.2108 39.5479 18.9796 40.385 19.8679C40.795 18.9967 41 18.04 41 17.0833V5.125C41 2.30625 38.6938 0 35.875 0Z" fill="white"/>
<path d="M32.4582 11.9583C30.5739 11.9583 29.0415 10.426 29.0415 8.54166C29.0415 6.65737 30.5739 5.125 32.4582 5.125C34.3425 5.125 35.8748 6.65737 35.8748 8.54166C35.8748 10.426 34.3425 11.9583 32.4582 11.9583Z" fill="white"/>
</g>
<defs>
<clipPath id="clip0">
<rect width="41" height="41" fill="white"/>
</clipPath>
</defs>
</svg>
