<svg width="50" height="50" viewBox="0 0 50 50" fill="none" xmlns="http://www.w3.org/2000/svg">
<path d="M19.2277 22.4161H21.2869V28.8199C21.2869 29.4716 21.8364 30 22.5142 30H27.7727C28.4505 30 29 29.4716 29 28.8199V16.1801C29 15.5284 28.4505 15 27.7727 15H23.1716C22.7853 15 22.4215 15.1749 22.1897 15.472L18.2459 20.528C17.6394 21.295 18.2261 22.4224 19.2277 22.4161Z" fill="white"/>
<path d="M47.326 27.4067L44.3984 25.6958C44.1322 25.5402 43.8574 25.4139 43.5778 25.313C45.7226 24.7613 47.3141 22.7905 47.3141 20.4501V17.0284C47.3141 16.275 46.7107 15.6642 45.9664 15.6642H42.5865C42.2794 15.6642 41.9791 15.6942 41.6872 15.7486C43.2755 14.1859 43.6804 11.6792 42.5201 9.6453L40.8306 6.6823C40.4585 6.02995 39.6345 5.80641 38.9899 6.18274L36.062 7.89378C33.6956 9.27652 32.8814 12.3509 34.2472 14.7469C34.2473 14.7471 34.2477 14.7476 34.2475 14.7474C34.2472 14.7469 35.9376 17.7102 35.9377 17.7103C37.0418 19.6407 37.6275 21.8469 37.6301 24.0882V24.1031C37.6301 24.1043 37.6303 24.1056 37.6303 24.1069C36.9303 41.0672 13.0635 41.0541 12.3697 24.1069C12.3697 24.1056 12.3699 24.1043 12.3699 24.1031V24.0882C12.3725 21.8469 12.9582 19.6407 14.0623 17.7103C14.0623 17.7102 15.7528 14.7469 15.7525 14.7474C15.7524 14.7476 15.7527 14.7471 15.7528 14.7469C17.1187 12.3508 16.3044 9.27652 13.938 7.89378L11.0101 6.18274C10.3655 5.80641 9.54142 6.02995 9.16937 6.6823L7.47987 9.6453C6.31963 11.6792 6.72455 14.1859 8.31281 15.7486C8.0209 15.6942 7.72065 15.6642 7.41347 15.6642H4.03355C3.28929 15.6642 2.6859 16.275 2.6859 17.0284V20.4501C2.6859 22.7905 4.2773 24.7613 6.42223 25.313C6.14263 25.4139 5.8678 25.5402 5.6016 25.6958L2.67404 27.4067C2.0295 27.7834 1.80867 28.6176 2.18071 29.27L3.87094 32.2331C5.03055 34.2672 7.37717 35.1657 9.50844 34.5548C9.316 34.7834 9.14036 35.0316 8.98672 35.3008L7.29721 38.2642C6.92517 38.9166 7.14601 39.7509 7.79054 40.1275L10.7179 41.8382C13.0923 43.2264 16.1197 42.4013 17.4885 40.0018C17.4885 40.0018 18.0576 39.0041 18.5354 38.1665C19.6375 38.6877 20.8104 39.08 22.0354 39.324L19.7167 41.6712C19.1904 42.2038 19.1904 43.0676 19.7167 43.6004C20.2429 44.1331 21.0962 44.1331 21.6225 43.6004L25 40.1814L28.3776 43.6004C28.9038 44.1331 29.757 44.1333 30.2834 43.6004C30.8097 43.0677 30.8097 42.2039 30.2834 41.6712L27.9647 39.324C29.1897 39.08 30.3625 38.6876 31.4647 38.1665C31.9425 39.004 32.5116 40.0018 32.5116 40.0018C33.8804 42.4013 36.9078 43.2265 39.2822 41.8382L42.2095 40.1275C42.8541 39.7508 43.0749 38.9166 42.7029 38.2642L41.0133 35.3008C40.8597 35.0316 40.684 34.7834 40.4916 34.5548C42.6227 35.1656 44.9695 34.2672 46.1291 32.2331L47.8193 29.27C48.1913 28.6176 47.9705 27.7834 47.326 27.4067Z" fill="white"/>
</svg>
