<svg width="48" height="34" viewBox="0 0 48 34" fill="none" xmlns="http://www.w3.org/2000/svg">
<path d="M23.9228 10.5737V30.3534L39.6701 27.365V17.7276C39.6701 17.3242 40.0215 17.0108 40.4222 17.0568L42.3596 17.3566C42.7004 17.3957 42.9578 17.6843 42.9578 18.0274V29.2233C42.9578 29.5416 42.7356 29.8166 42.4244 29.8835L25.1863 33.59C24.3532 33.769 23.4918 33.771 22.658 33.5956L5.60485 30.0086C5.29881 29.9443 5.07701 29.6781 5.06885 29.3654L4.77426 17.9948C4.76501 17.6382 5.03481 17.336 5.3901 17.3048L19.8757 16.0319C20.127 16.0099 20.3449 15.8496 20.441 15.6165L22.6233 10.3166C22.9048 9.63272 23.9228 9.83413 23.9228 10.5737ZM4.61042 4.09759L0.0646935 13.8141C-0.157424 14.289 0.222654 14.8247 0.744144 14.772L17.8156 13.0471C18.0568 13.0227 18.2665 12.8708 18.3648 12.6492L23.8578 0.274292L5.10006 3.71963C4.8854 3.75908 4.70297 3.89986 4.61042 4.09759ZM23.8579 0.274292L29.6701 13.036C29.7717 13.2591 29.9861 13.4095 30.2305 13.4292L47.2697 14.7995C47.7832 14.8407 48.1519 14.3149 47.9381 13.8462L43.4943 4.1041C43.4024 3.90261 43.2176 3.75908 42.9996 3.71978L23.8579 0.274292Z" fill="white"/>
</svg>
