<svg width="29" height="45" viewBox="0 0 29 45" fill="none" xmlns="http://www.w3.org/2000/svg">
<path d="M28.3615 8.79935L25.549 1.7681C25.122 0.7004 24.0878 0 22.9377 0H6.0627C4.91256 0 3.87844 0.7004 3.45138 1.7681L0.638879 8.79935C0.370374 9.46951 0.370374 10.218 0.638879 10.8882L3.45138 17.9194C3.87844 18.9871 4.91256 19.6875 6.0627 19.6875H7.46895C7.46895 21.2407 8.72824 22.5 10.2814 22.5H11.6877V23.5801C11.6877 26.9248 13.5176 29.979 16.3486 31.3618C17.8105 32.0767 18.7189 33.5303 18.7189 35.1555C18.7189 37.4029 16.7469 39.375 14.4995 39.375C12.1738 39.375 10.2814 37.4826 10.2814 35.1562C10.2814 33.603 9.02215 32.3438 7.46895 32.3438C5.91574 32.3438 4.65645 33.603 4.65645 35.1562C4.65645 40.5842 9.07225 45 14.4995 45C19.8354 45 24.3439 40.4915 24.3439 35.1555C24.3439 31.3639 22.2263 27.9739 18.8178 26.3081C17.9032 25.8611 17.3127 24.7907 17.3127 23.5801V22.5H18.7189C20.2721 22.5 21.5314 21.2407 21.5314 19.6875H22.9377C24.0878 19.6875 25.122 18.9871 25.549 17.9194L28.3615 10.8882C28.63 10.218 28.63 9.46951 28.3615 8.79935ZM7.93776 15.4688H4.97285L8.7228 4.21875H11.6877L7.93776 15.4688ZM14.1077 15.4688H11.1428L14.8927 4.21875H17.8576L14.1077 15.4688ZM20.2776 15.4688H17.3127L21.0626 4.21875H24.0275L20.2776 15.4688Z" fill="white"/>
</svg>
