<svg width="271" height="271" viewBox="0 0 271 271" fill="none" xmlns="http://www.w3.org/2000/svg">
<path fill-rule="evenodd" clip-rule="evenodd" d="M35.266 139.82C35.6325 138.906 35.9075 138.083 36.2739 137.169L36.3652 137.26C36.3645 137.991 37.5518 138.63 38.0997 138.994C38.3743 138.537 38.5576 137.989 38.3756 137.258C38.1023 136.436 38.1021 136.619 37.4627 136.345C37.0057 136.437 36.7315 136.529 36.5485 136.712C39.6641 128.301 43.1452 119.891 46.9002 111.754C47.2657 111.754 47.5399 111.662 47.8138 111.936C48.9086 113.58 47.4479 112.302 48.6344 113.671C49.4575 113.031 49.6406 112.665 50.2811 111.842C52.2939 109.464 51.8345 111.932 53.6651 109.006C55.0379 106.903 52.9361 106.996 55.3125 106.446C54.3969 108.274 53.481 110.285 52.6566 112.205C52.4738 112.205 52.2911 112.206 52.0169 112.297C50.2788 114.035 50.7362 113.578 50.9182 114.309C51.3752 114.217 51.6494 114.125 51.7409 114.034C47.6193 123.267 43.8631 132.683 40.2896 142.099L38.8273 142.283C38.0955 143.015 37.5463 143.93 36.6319 144.479C34.529 145.669 34.8036 145.212 34.2555 145.029C33.618 142.928 36.1759 143.657 35.6301 141.282C35.5395 140.459 35.4486 140.002 35.266 139.82ZM48.5491 107.732C49.5567 105.446 50.6555 103.252 51.7543 101.058L51.8456 101.149L52.4859 100.509C52.3946 100.418 52.3033 100.326 52.212 100.235C55.0506 94.658 57.8891 89.0809 60.9102 83.6864C61.8236 84.051 61.2751 84.2343 62.6459 84.1415C65.3875 83.9559 65.0223 83.5908 67.6756 80.3897C68.2239 80.3892 68.4067 80.389 68.8637 80.2971L69.0464 80.297C67.6732 82.7656 66.1172 85.2345 64.744 87.7031C64.6525 87.7946 64.4695 87.9775 64.3781 88.069C63.6461 88.9836 63.7375 88.8921 63.9199 89.2574L63.4622 90.0803C63.2796 89.8977 63.0969 89.8979 62.9139 90.0809C62.7304 90.8121 62.548 90.4468 63.0957 90.9945C61.6308 93.7374 60.1659 96.4803 58.7923 99.3145C58.5179 99.5889 58.2433 100.046 58.0603 100.229C56.8736 99.0423 56.5998 98.7684 55.4123 98.3128C53.4915 100.051 54.8621 100.141 56.8706 101.966L53.0278 106.722C51.1081 107.364 52.1142 106.54 50.2845 108.553C50.1932 108.461 50.2849 108.187 50.1934 108.279C49.9192 108.37 50.468 107.821 49.6464 107C49.0065 107.275 48.7321 107.549 48.5491 107.732ZM62.2834 81.2177C63.7481 78.6576 65.2128 76.0975 66.7688 73.6286C66.9516 73.6284 67.1343 73.6282 67.5911 73.7191C68.689 72.4387 70.427 70.7007 70.6111 69.4212C69.3321 69.057 70.2454 69.6043 69.4232 69.331C69.7893 68.7824 70.1554 68.2337 70.4302 67.5938L70.7957 67.5934C70.887 67.6847 71.526 68.3237 71.6173 68.415C72.6218 69.0536 71.891 68.8716 72.8051 68.5051C72.6233 67.5915 72.5317 67.8658 72.1669 67.1351C71.6197 66.0391 72.5328 66.7692 71.6199 65.8563C73.3591 63.0218 75.1897 60.0958 77.0201 57.3525C80.498 52.0489 86.1669 48.7534 92.4724 48.4728L92.2894 48.6557L88.8127 52.8627C86.7999 55.2407 87.4404 54.4176 87.6224 55.1485C85.2454 56.2475 83.0504 58.0773 81.4946 60.3634C79.9386 62.8322 78.1998 65.3013 76.7351 67.8614C76.3698 67.679 75.8217 67.4968 75.0905 67.6804C74.6335 67.7722 74.9079 67.4978 74.3592 67.8639C73.0792 68.5962 73.6269 69.1439 74.5399 69.874L75.4537 69.8731C73.5315 73.0734 71.5179 76.1823 69.5954 79.5654L68.5 78.4699C67.6775 78.5622 66.4893 78.8375 65.7585 78.6555C65.3003 79.8439 65.5757 78.6557 65.4835 79.4782C65.4835 79.4782 65.5742 80.1178 65.4827 80.2092C64.2038 79.845 63.7462 80.4852 62.2834 81.2177ZM67.7758 71.8914L68.2333 71.2512C68.0504 71.4342 67.9587 71.7084 67.7758 71.8914ZM93.7517 48.4714L93.9344 48.4712C94.6655 48.4705 95.4878 48.561 96.2188 48.5603C94.9391 48.9271 92.1023 52.8594 91.37 54.1394C90.3647 54.2318 89.4505 54.5983 88.5365 54.782L88.628 54.6905L93.7517 48.4714ZM96.3103 48.4688C101.61 48.6461 106.818 48.9149 112.027 49.1836C111.569 49.641 111.935 49.8234 112.208 50.28C112.94 50.0965 113.214 49.8221 113.397 49.2736L114.311 49.2727C114.22 49.3641 114.22 49.3641 114.128 49.4556C114.767 50.0946 114.767 50.0946 115.408 49.4543L115.316 49.363C120.159 49.6321 125.002 50.0841 129.936 50.6272C129.844 50.9015 129.57 51.1759 129.113 51.2677C128.29 51.5427 129.204 50.9935 128.381 51.4513C127.833 51.8173 127.649 52.3658 127.558 52.64C129.019 53.7351 131.122 51.9967 132.585 51.2642C134.046 51.9937 133.224 52.0859 134.504 51.5363L136.421 53.2706C136.42 54.5499 137.15 54.9146 138.063 55.8275L140.713 55.5506C141.809 56.8288 140.987 55.6417 141.351 57.1034C142.63 57.4676 143.27 57.3756 143.635 57.9235L142.63 57.8331C126.915 55.4735 111.016 54.3933 94.9341 53.8616L96.3065 52.124C95.5761 51.5765 95.7586 51.759 95.5759 51.7592C94.7537 51.4859 95.7585 51.9418 94.7537 51.4859C96.9495 48.925 96.5836 49.2909 96.3103 48.4688ZM142.91 52.2587L143.549 52.3494C144.006 52.4403 144.463 52.5312 145.011 52.5307L145.285 52.9873C144.462 53.6278 144.736 53.5361 143.914 53.4456C143.182 54.7257 144.278 54.7245 141.993 55.001C143.183 53.0808 143.64 52.989 142.91 52.2587ZM146.291 52.7121C152.686 53.6193 159.081 54.892 165.294 56.1649C165.385 56.439 165.385 56.8045 165.932 57.535C166.571 58.5395 166.663 57.3515 166.664 56.8032L166.664 56.4377C172.877 57.7106 178.906 59.1664 185.027 60.7136L185.118 60.8049C185.484 60.9872 185.667 60.987 185.849 60.9869L186.854 61.26C187.128 61.5338 187.493 61.7162 188.041 62.0811C188.224 61.8982 188.407 61.7153 188.499 61.6238C189.778 61.988 191.148 62.2607 192.427 62.6249C198.091 64.0811 202.564 68.0058 205.027 73.0292C205.118 73.1205 205.118 73.3032 205.209 73.76L205.391 73.7598L205.482 74.0339C205.847 74.7645 206.029 75.4954 206.302 76.3175C207.395 79.9716 208.397 83.7171 209.398 87.2799L208.209 88.469C205.47 86.096 207.936 87.2814 205.654 85.182C203.919 83.6303 204.741 84.0864 204.559 83.5383C204.194 82.6249 204.377 82.8074 203.372 82.1688L202.64 83.0834C202.094 81.2564 201.639 79.5206 201.092 77.6936C199.727 72.8519 195.984 69.1092 191.142 67.9262C186.118 66.5607 181.093 65.378 176.16 64.1037C176.435 63.281 176.71 62.0928 176.619 61.4533C175.614 61.5457 175.797 61.911 175.248 62.0943C174.334 62.4608 172.874 60.6347 171.322 59.2656C170.59 59.4491 170.225 59.4495 169.585 59.7243C169.491 61.8261 168.852 62.1009 168.486 62.2841C165.928 61.7384 163.187 61.193 160.629 60.6473C161.726 59.9152 159.899 59.9171 159.533 59.9174L158.255 58.8222C157.981 58.9139 157.889 59.0053 157.432 59.0972C157.067 59.0976 156.884 59.0977 156.61 59.0067L155.878 59.7384C154.508 59.4657 152.955 59.1932 151.584 58.9205L151.401 58.9206C151.494 57.3671 153.869 58.2784 154.6 58.6432L155.789 57.2713C155.333 56.4493 155.516 56.4492 155.516 56.2664C155.152 54.6219 154.054 56.0851 153.231 57.0912C151.404 56.7275 152.591 57.7315 150.673 56.3628C149.576 56.9122 150.216 56.6374 149.211 56.7298L147.657 57.1883C146.927 55.727 146.471 54.7223 146.382 52.9862C146.382 52.9862 146.382 52.8034 146.291 52.7121ZM210.309 90.3858C210.673 91.6648 211.037 92.9437 211.31 94.3141C211.219 94.2228 211.036 94.223 210.762 94.3147L209.939 94.4069C209.756 94.4071 209.756 94.4071 209.573 94.4073C210.488 93.4925 210.671 93.4924 210.489 92.5788C210.399 91.5737 210.308 90.9341 210.309 90.3858ZM212.038 97.4203C213.494 103.084 214.767 108.749 215.949 114.504C214.67 114.506 215.217 115.602 214.942 116.79C214.575 117.887 214.394 116.79 214.849 117.978C215.032 117.978 214.94 118.617 215.763 117.611C216.678 116.514 215.58 117.977 216.131 115.783C216.767 118.798 217.221 121.813 217.858 124.828C219.947 137.162 221.396 149.588 222.205 162.106C221.657 162.29 221.109 162.29 221.017 162.382C220.286 162.748 220.102 164.028 218.822 164.394C218.822 164.394 218.457 164.395 218.365 164.486C217.725 164.761 218.091 164.578 217.542 165.127C217.268 165.401 217.085 165.584 216.81 165.859C216.63 163.3 216.359 160.65 216.27 158C216.727 158.274 217.275 158.274 217.824 157.908C219.012 157.267 218.556 156.627 218.374 155.897C218.465 155.805 219.197 155.073 219.197 155.073C219.929 153.976 219.654 154.799 219.473 153.885C218.741 154.069 219.839 153.154 218.467 154.343C218.284 154.526 217.826 155.166 217.643 155.349C218.007 157.542 217.185 156.903 216.271 157.452C215.909 153.249 215.457 148.955 215.004 144.66L215.735 145.391C216.375 144.75 216.376 144.019 215.829 142.923C215.189 142.833 215.555 142.832 214.823 143.016L214.641 143.016C214.007 137.26 213.099 131.595 212.191 125.931C212.009 125.2 212.01 124.469 211.828 123.738C212.193 123.555 212.56 123.006 212.834 122.366C212.652 122.183 212.104 122.001 211.556 121.819C211.011 118.713 210.374 115.698 209.737 112.683C210.103 112.683 210.56 112.591 211.2 112.133L209.922 110.855L209.465 111.313C208.101 104.826 206.554 98.3397 204.824 91.8536L204.916 91.9448C205.373 91.3047 205.281 91.7617 205.191 90.9394C205.191 90.7566 205.101 89.9343 205.101 89.7515C204.827 89.6604 204.461 89.6608 204.278 89.661C203.823 88.108 203.368 86.3723 202.913 84.8193L203.37 84.1792C203.826 85.0011 203.095 84.8191 204.647 86.371L203.732 87.6512L204.828 88.7466C206.472 88.745 205.194 87.8325 207.111 89.5667C207.017 92.0341 206.655 88.9275 207.017 92.7651C208.661 93.3117 207.292 91.9424 208.935 93.4028C208.385 95.4137 206.191 95.5987 207.835 96.8763L209.756 94.9554C210.121 95.3205 210.942 96.1421 211.308 96.5072C211.673 96.3241 211.947 96.9635 212.038 97.4203ZM222.477 164.939C222.567 166.127 222.566 167.223 222.747 168.32C222.382 168.503 222.381 168.868 222.563 169.599C222.655 169.508 222.654 169.873 222.929 169.782C223.018 171.335 223.108 172.706 223.198 174.259L223.198 174.442C222.65 174.259 222.741 174.168 222.101 174.808C222.375 175.265 222.74 175.63 223.105 175.812C223.103 178.006 222.552 180.199 221.819 182.21C221.271 182.394 221.27 182.759 221.27 183.49C219.804 186.599 217.517 189.434 214.499 191.539C213.219 192.454 211.847 193.278 210.567 194.193C209.104 194.925 210.202 194.01 208.373 195.657L207.824 196.023C207.824 196.023 207.824 195.84 207.733 195.932C207.641 196.023 207.642 195.658 207.642 195.475C207.37 193.374 208.099 194.835 207.278 193.648C206.273 193.923 206.546 194.197 205.632 194.563L204.627 194.656C203.896 194.474 203.988 194.382 203.897 194.108C203.076 192.738 204.536 194.199 203.441 192.738L201.978 194.019L201.613 193.654C204.813 191.549 208.105 189.352 211.397 187.156C211.854 186.881 212.311 186.424 212.769 186.149L212.86 186.24C212.036 187.246 211.945 186.972 212.401 187.977C213.407 187.702 217.341 183.037 217.799 181.849C216.795 180.845 217.434 181.484 216.703 181.485C216.52 181.485 216.429 181.393 216.337 181.485C217.253 179.474 217.712 177.189 217.532 174.813C217.533 173.899 217.442 173.077 217.352 172.072L217.718 172.071C217.627 171.615 217.444 171.432 217.262 171.249C217.263 169.97 217.081 168.691 217.083 167.412L218.638 165.674C219.551 166.404 219.095 165.948 219.551 166.77L219.915 167.5L220.007 167.591C220.098 167.5 220.281 167.5 220.281 167.5L222.202 165.579C222.294 165.305 222.385 165.03 222.477 164.939ZM204.166 198.403C201.149 200.325 198.131 202.247 195.114 203.986C195.297 203.803 195.388 203.712 195.571 203.529C196.669 202.248 198.406 201.241 197.128 200.146C195.482 201.427 195.115 202.524 194.567 203.073C193.194 204.628 193.926 203.713 193.287 203.805C192.648 202.984 192.921 203.44 193.105 202.526C193.289 201.795 193.654 202.343 193.198 201.338C191.37 201.706 192.465 203.166 190.456 201.524C190.274 201.341 190.091 201.159 189.817 201.067C191.097 200.335 192.286 199.511 193.566 198.779C193.474 199.053 193.383 199.328 193.565 199.693C194.661 199.875 195.302 199.234 194.754 198.138L194.572 198.138L195.852 197.406C195.76 197.68 195.851 197.954 196.125 198.411C196.399 198.319 196.673 198.41 197.039 197.862C197.589 196.765 197.223 197.313 196.858 196.765C198.138 196.033 199.418 195.118 200.698 194.386L201.063 194.751L200.604 196.487C202.797 197.216 202.616 195.389 204.169 196.027C204.625 197.032 204.534 196.392 203.619 197.855C203.893 197.946 204.075 198.129 204.166 198.403ZM187.708 208.471C184.69 210.211 181.673 211.95 178.564 213.598L175.365 214.241C175.274 214.15 175 214.059 174.909 214.15L174.361 213.968C174.085 215.156 174.176 215.43 174.45 215.887C172.896 216.711 171.341 217.535 169.787 218.359L169.058 216.532L168.875 216.532C166.317 216.352 168.602 215.345 166.133 217.083C166.042 217.175 165.95 217.266 165.859 217.175C165.767 217.266 165.585 217.267 165.585 217.267C165.585 217.267 165.402 217.267 165.31 217.358C164.215 216.08 164.763 216.811 165.495 215.348L165.039 214.891C166.136 214.342 167.233 213.793 168.422 213.152C168.239 213.335 168.056 213.7 167.964 213.975C169.06 214.704 168.421 214.065 169.152 214.247C169.334 214.247 171.527 215.159 173.081 214.335C174.178 213.785 173.997 211.958 176.739 211.407L176.923 210.127C177.198 209.122 177.746 209.852 176.925 208.665C175.919 208.94 176.559 208.848 175.919 209.306C175.096 209.764 175.37 209.489 174.73 209.764C177.382 208.391 180.033 206.834 182.685 205.278C182.776 205.37 182.411 205.553 183.051 205.095C184.331 204.363 185.611 203.63 186.891 202.898C187.439 203.263 188.079 203.171 188.81 202.622L190.362 203.991C192.099 203.898 190.82 203.168 192.281 204.263C192.097 205.36 192.097 205.177 190.817 206.458C189.537 206.459 189.994 206.367 189.081 206.003C188.075 207.009 187.343 207.375 187.799 208.38C187.616 208.38 187.708 208.471 187.708 208.471ZM159.73 223.486C158.267 224.219 156.804 224.952 155.25 225.593C155.068 225.227 154.794 224.954 154.429 224.588C153.789 225.229 152.874 225.961 152.325 226.875C151.685 227.15 151.045 227.425 150.496 227.791L150.588 227.699C150.588 227.517 150.589 226.42 150.589 226.42C150.316 225.598 150.224 225.872 149.494 225.142L146.475 228.343C146.201 227.704 146.202 227.156 146.02 226.425L147.119 223.865C147.302 223.682 147.485 223.316 147.668 223.133C148.308 222.859 149.04 222.492 149.68 222.218C150.227 222.765 149.862 222.948 149.404 223.588C148.58 224.96 148.673 223.772 148.946 224.96C149.585 224.868 148.762 225.508 149.951 224.502C150.043 224.41 150.317 223.953 150.5 223.77C152.33 221.392 152.603 222.58 154.159 220.659L155.347 220.75C155.622 219.744 155.621 220.475 155.439 219.562L155.805 219.378C156.079 219.287 156.262 219.287 156.811 218.921L156.719 218.829C157.816 218.28 158.914 217.73 159.919 217.272C159.919 217.455 159.919 217.638 159.827 217.912L161.105 219.007C162.02 217.91 161.106 218.642 161.747 217.088C161.747 217.088 162.113 216.356 162.205 216.265L162.113 216.174L162.845 215.807C163.027 216.173 163.118 216.447 163.209 216.904C163.391 217.452 163.392 217.269 163.574 217.634C164.486 219.095 161.285 221.749 159.73 223.486ZM145.742 229.989C145.102 230.264 144.462 230.538 143.731 230.905C143.731 230.905 143.548 230.905 143.457 230.996C141.72 231.821 139.891 232.553 138.154 233.195C137.79 232.464 137.698 232.556 137.425 231.916C137.334 231.46 137.516 231.642 137.152 230.729L135.78 232.101C134.867 231.371 134.136 230.823 134.138 229.544L133.498 229.453C131.853 229.272 134.32 229.726 133.041 229.362L132.95 229.271C134.23 228.721 135.51 228.172 136.698 227.714C136.789 227.988 136.88 228.262 137.063 228.627C138.342 228.26 137.52 228.352 137.703 227.438L137.795 227.347C140.263 226.339 142.732 225.149 145.2 224.141C145.291 224.415 145.291 224.781 145.382 225.055C143.827 226.244 143.828 225.33 142.822 226.154C144.007 228.803 144.098 229.077 145.469 229.167L146.017 229.166C145.743 229.623 145.651 229.898 145.742 229.989ZM134.315 234.844C133.492 235.119 132.669 235.576 131.847 235.851C132.029 235.668 132.121 235.394 132.304 235.029L131.117 234.207C131.026 234.299 130.934 234.208 130.843 234.299C130.112 234.665 128.922 236.037 127.733 237.409C127.184 237.592 126.636 237.776 126.179 238.05C123.985 238.966 121.7 239.243 119.415 239.337C118.959 239.063 118.684 239.155 118.319 239.338C114.298 239.159 110.279 237.701 106.901 235.055C103.522 232.408 100.144 229.762 96.7658 227.115C97.223 226.841 97.3146 226.566 97.7722 225.926C98.6871 224.829 98.6868 225.194 98.1396 224.098C97.4082 224.465 96.9508 224.922 96.2188 225.836C96.0359 226.019 95.853 226.202 95.8528 226.385C93.8441 224.742 91.8355 223.1 89.9181 221.548C90.1012 221.182 90.2844 220.817 90.1934 220.36L88.5484 220.544C87.179 219.358 85.9008 218.263 84.5313 217.076L85.9011 217.897C87.5475 216.433 86.9079 216.343 85.4472 215.065C85.5387 214.973 85.4474 214.882 85.5388 214.791L86.0884 213.511C84.5368 211.776 83.8963 212.599 83.8035 213.97L83.8033 214.153C83.7114 214.61 83.4366 215.25 83.0707 215.615C81.9751 214.703 81.0623 213.79 79.9667 212.877C80.0581 212.786 80.2411 212.603 80.4238 212.603C83.0743 212.143 81.6136 210.865 82.0711 210.225C82.9857 209.493 83.7163 209.858 84.6303 209.674C85.0867 210.131 85.6346 210.496 86.0911 210.952C86.1822 211.226 86.456 211.5 87.0952 211.956L87.1867 211.865C91.2038 215.333 95.2209 218.801 99.421 222.087C99.1458 223.092 98.5983 222.362 99.6939 223.274C99.8768 223.091 100.06 222.908 100.334 222.817C103.621 225.555 106.999 228.201 110.286 230.756C114.121 233.677 118.872 234.586 123.442 233.119C123.625 233.119 123.717 233.027 123.899 233.027C123.991 232.935 124.174 232.935 124.265 232.844L125.088 232.569C124.905 232.752 124.905 232.934 124.905 233.117C124.812 233.94 126.639 235.034 127.37 235.216C128.009 235.124 127.003 235.948 128.192 234.759L130.388 232.198C131.484 232.562 130.571 232.38 131.942 232.288C132.398 232.744 133.128 233.291 133.676 233.656C134.132 234.478 134.315 234.661 134.315 234.844ZM79.2364 212.147C78.8712 211.782 78.5061 211.417 78.1408 211.234L80.7941 208.033L81.7069 208.946C81.4317 209.952 80.1513 211.05 79.3278 212.056L79.2364 212.147ZM77.3192 210.413C74.6717 207.948 71.933 205.392 69.2855 202.928C57.3268 191.335 46.3742 178.736 35.8788 165.862C35.0575 164.858 34.3276 163.762 33.7804 162.666L33.9634 162.483C35.3353 161.294 37.4371 161.2 37.4396 158.824L36.2517 158.734C34.7895 158.919 34.6967 160.289 33.234 160.839C33.1425 160.931 32.9598 160.931 32.9598 160.931C31.228 156.638 31.0503 151.703 32.6084 147.224C32.6997 147.316 32.791 147.407 32.9735 147.589C32.7898 148.503 31.8755 149.053 33.0616 150.788C36.0791 148.866 34.2495 150.878 36.9011 149.322C37.9069 148.681 36.9927 149.047 37.9067 148.864C36.2572 153.434 37.1657 158.551 40.2686 162.385C50.6727 175.168 61.5342 187.493 73.2189 198.995C75.8662 201.642 78.6049 204.198 81.4351 206.662L81.4349 206.845C79.5142 208.583 80.9791 205.84 78.8744 208.675C78.5085 209.041 77.9595 209.772 77.3192 210.413ZM38.0906 147.767L38.4573 146.67C38.2741 147.036 38.2737 147.401 38.0906 147.767ZM55.7707 105.257L56.4117 103.886C55.8629 104.435 55.7712 104.709 55.7707 105.257ZM174.456 209.673C173.542 210.222 172.536 210.68 171.622 211.229C173.084 211.593 174.636 212.414 174.456 209.673ZM42.1092 149.773C42.0178 149.865 42.0176 150.047 41.9261 150.139L41.196 149.226C42.0196 148.037 41.9276 148.677 41.8373 147.672C41.1977 147.581 41.1979 147.398 40.9233 147.855C41.3816 146.484 41.9312 145.204 42.3895 143.833C42.6639 143.559 42.9383 143.284 43.2128 143.01C44.6728 145.019 43.7599 144.106 42.3872 146.026C41.838 146.941 42.2032 147.306 42.9338 147.671C42.659 148.31 42.4755 149.042 42.2007 149.682L42.1092 149.773ZM41.7426 150.87C41.6507 151.327 41.5589 151.784 41.467 152.241C41.3748 153.064 41.3739 153.977 41.4644 154.8C41.5549 155.622 41.8282 156.444 42.1928 157.358C42.5576 158.088 43.0136 158.91 43.5611 159.641C46.2078 162.836 48.7633 165.94 51.3187 169.045C53.8741 172.149 56.6123 175.253 59.3507 178.174C61.1762 180.183 63.0017 182.191 64.8272 184.2C64.6433 185.296 64.7331 186.85 66.3783 186.483C66.3787 186.117 66.4702 186.026 66.4704 185.843C66.9268 186.299 67.2919 186.664 67.7484 187.121C70.578 190.134 73.4079 192.963 76.3292 195.702C78.8852 198.258 81.4414 200.631 84.1803 203.004C83.6318 203.187 82.9919 203.462 82.5345 203.919L82.352 203.737L81.9872 203.006L81.8959 202.915L81.5306 202.733C81.4391 202.824 81.4391 202.824 81.3476 202.916C79.2479 200.999 77.0568 198.991 75.0486 196.982C72.1274 194.061 69.2976 191.231 66.3764 188.31C63.5468 185.298 60.7171 182.285 58.0702 179.272C55.4233 176.259 52.6851 173.155 50.0384 169.96C47.3917 166.764 44.8363 163.66 42.1896 160.464C41.5508 159.643 41.0034 158.729 40.6389 157.816C40.183 156.811 39.9099 155.806 39.8196 154.801C39.7292 153.796 39.6389 152.791 39.8228 151.694C39.823 151.512 39.823 151.512 39.8231 151.329L39.9144 151.42L41.7426 150.87ZM85.093 204.1L85.6407 204.647C85.7314 205.287 85.6394 205.927 85.913 206.383C86.8268 206.382 87.1923 206.382 87.558 206.199C88.0145 206.655 88.4711 206.929 88.9275 207.385C88.5614 207.934 88.1041 208.391 87.7382 208.757C86.46 207.662 85.1818 206.567 83.9038 205.289L83.4474 204.832C83.4479 204.284 83.5396 204.01 84.7276 203.917L85.093 204.1ZM89.7491 208.207C91.2098 209.485 92.6706 210.762 94.2226 212.132C96.6877 214.231 99.1528 216.33 101.618 218.246L100.429 219.618C97.8722 217.611 95.4071 215.511 93.0333 213.503C91.7551 212.408 90.4769 211.313 89.1987 210.218C89.4735 209.578 89.383 208.756 89.7491 208.207ZM102.44 218.885L103.535 219.798C106.64 222.353 109.835 224.817 113.031 227.281C113.67 227.737 114.401 228.285 115.132 228.467L115.04 228.741C115.77 230.202 115.587 229.837 115.13 230.477C114.856 230.386 114.673 230.386 114.49 230.204C113.577 229.839 112.664 229.292 111.842 228.653C108.646 226.189 105.45 223.725 102.255 221.078L101.89 220.713C102.164 220.073 102.256 219.434 102.166 218.794L102.44 218.885ZM117.233 229.287C117.415 229.287 117.689 229.378 117.872 229.378C118.694 229.468 119.517 229.559 120.339 229.467C121.162 229.375 121.984 229.1 122.807 228.825L123.081 228.733L123.994 229.646C123.628 230.012 123.354 230.286 123.171 230.652C122.257 231.018 121.343 231.202 120.52 231.294C119.515 231.387 118.601 231.388 117.505 231.206C117.139 231.206 116.865 231.115 116.5 230.933C116.774 230.658 116.957 230.293 117.323 229.927C117.323 229.744 117.232 229.47 117.233 229.287ZM127.012 227.175L127.927 226.809C127.927 226.809 127.926 226.992 128.018 227.083C129.023 227.173 129.206 226.808 129.298 226.351C130.852 225.709 132.406 225.068 133.96 224.427C134.691 224.061 135.423 223.877 136.154 223.511L137.341 224.515C138.347 223.691 139.262 222.959 138.897 222.229C140.817 221.404 142.736 220.58 144.748 219.664C144.656 219.938 144.656 220.121 145.021 220.303C145.478 220.394 146.027 219.663 146.393 219.48C147.307 218.748 146.759 218.931 147.764 219.387L146.757 220.758L146.026 221.125C142.369 222.773 138.529 224.422 134.781 225.979C132.861 226.804 130.758 227.628 128.839 228.453C127.834 227.631 127.286 227.266 127.012 227.175ZM151.513 216.55C153.159 215.817 154.621 215.085 156.176 214.261C157.181 213.803 158.278 213.253 159.284 212.796L159.832 213.343L161.203 213.25C161.385 213.433 161.568 213.616 161.659 213.707C160.105 214.531 158.459 215.264 156.996 215.996L156.631 216.179L154.529 216.273L154.619 217.095L153.705 217.462L153.34 217.462C152.7 217.371 152.883 217.554 152.061 216.915L151.513 216.55ZM165.776 209.408L167.056 208.675C170.621 206.753 174.187 204.83 177.844 202.816L178.393 202.45C178.575 202.815 178.667 203.089 178.94 203.363C179.032 203.272 179.489 202.814 179.489 202.814L180.404 202.265C181.318 201.899 180.677 202.539 181.958 201.258C182.69 200.527 182.965 200.069 182.965 199.704C183.514 199.338 183.971 199.063 184.611 198.788L184.885 199.062C185.067 198.879 185.25 198.879 185.25 198.879C185.25 198.879 185.433 198.879 185.524 198.787C186.073 198.421 185.799 198.696 186.165 198.147C186.165 197.964 186.074 197.873 186.074 197.873C186.897 197.415 187.719 196.958 188.451 196.409L189.273 197.047C190.462 196.041 191.194 195.309 191.56 194.578C193.023 193.662 194.486 192.747 195.949 191.832C196.68 191.831 196.954 191.739 197.777 191.464L198.69 192.195C195.581 194.208 192.472 196.039 189.363 198.052C185.797 200.158 182.323 202.172 178.757 204.277C175.282 206.291 171.625 208.305 167.968 210.137C166.871 210.686 165.956 211.235 164.859 211.785C164.859 211.602 164.86 211.419 164.86 211.236C164.769 210.414 165.592 209.956 165.776 209.408ZM201.252 188.537C203.813 186.889 206.282 185.15 208.933 183.412C209.574 182.954 210.305 182.405 210.763 181.765C211.312 181.216 211.769 180.393 212.136 179.662C212.502 178.93 212.777 178.108 212.869 177.285C212.961 176.463 213.054 175.64 213.054 174.726C212.965 173.173 212.875 171.62 212.785 170.066C213.79 170.157 213.058 171.071 214.428 172.258C214.702 172.166 214.61 172.257 214.702 172.166C214.792 172.988 214.792 173.719 214.882 174.542C214.973 175.547 214.88 176.552 214.696 177.466C214.513 178.38 214.238 179.385 213.688 180.3C213.231 181.123 212.681 182.037 212.041 182.86C211.4 183.683 210.669 184.232 209.846 184.873C207.925 186.245 205.822 187.618 203.811 188.9C203.811 188.717 203.72 188.443 203.537 188.077L202.074 189.176C201.8 189.084 201.526 188.811 201.252 188.537ZM212.787 168.056C212.606 166.228 212.608 164.401 212.427 162.573L212.428 162.208C212.885 161.933 213.616 161.75 214.165 161.384L214.255 162.572C214.345 164.125 214.434 165.678 214.524 167.232C212.605 167.508 213.793 167.415 212.787 168.056ZM212.247 160.015C211.976 156.817 211.797 153.71 211.435 150.604C211.526 150.512 211.617 150.421 211.709 150.329C212.349 149.506 212.806 149.414 213.172 149.414L213.262 150.419C213.533 153.617 213.804 156.815 214.075 160.013L213.252 160.471C213.252 160.471 213.16 160.562 212.978 160.562L212.247 160.015ZM211.253 149.142C210.891 145.67 210.53 142.015 209.985 138.36C209.441 134.34 208.806 130.229 208.17 126.3C207.534 122.554 206.807 118.9 206.08 115.063C206.719 115.153 207.359 115.061 207.908 114.878C208.635 118.532 209.362 122.187 209.998 125.933C210.725 129.953 211.36 134.064 211.813 137.993C211.448 137.811 211.356 137.902 210.899 138.359L211.538 138.998L211.904 138.633C212.086 139.363 212.085 140.094 212.267 140.825C211.627 141.466 211.169 142.106 211.9 142.47C212.265 142.47 212.174 142.562 212.448 142.287C212.72 144.206 212.901 146.216 213.082 148.226C212.99 148.318 212.899 148.409 212.716 148.409C212.625 148.501 212.625 148.501 212.442 148.501C212.35 148.592 212.259 148.501 212.168 148.593C212.076 148.684 211.985 148.593 211.893 148.684C211.71 148.867 211.436 149.142 211.253 149.142ZM205.715 113.966L205.534 113.053C205.808 112.778 206.265 112.321 207.089 111.498C207.18 111.955 207.27 112.411 207.453 112.96L206.996 112.869C206.356 113.326 205.99 113.692 205.715 113.966ZM204.806 109.581C204.26 107.206 203.806 104.922 203.168 102.638C202.986 101.907 202.804 101.176 202.622 100.445L203.995 98.7079L204.086 98.6164C204.359 99.804 204.632 100.992 204.905 102.179C205.36 104.281 205.906 106.473 206.361 108.574C205.812 108.758 205.355 109.032 204.806 109.581ZM202.259 98.801C201.622 96.1517 200.893 93.4111 200.165 90.8532C199.892 89.8483 199.619 88.8434 199.254 87.7472C199.529 87.8383 199.072 87.5647 200.26 87.6548L200.9 86.8317C201.173 88.0194 201.538 89.1156 201.81 90.3032C202.448 92.7698 203.085 95.0536 203.722 97.5202C203.539 97.5204 203.448 97.6119 203.265 97.6121C203.174 97.7035 202.716 98.1609 202.259 98.801ZM198.891 86.1028C198.253 83.8189 197.616 81.3524 196.888 78.9772C196.888 78.7945 196.797 78.7032 196.705 78.6119L196.614 78.7034L193.687 81.6305C193.229 82.0879 192.772 82.5453 192.132 82.8201C191.583 83.1862 190.852 83.5524 190.121 83.7359C189.207 83.9196 188.293 84.1033 187.562 84.1041C187.105 84.1959 186.648 84.105 186.191 84.1969C186.557 83.831 186.831 83.3738 187.197 83.0079C187.106 82.7339 187.106 82.5511 187.107 82.3684C187.289 82.3682 187.381 82.2767 187.472 82.368C188.203 82.3672 189.026 82.275 189.757 82.0915C190.305 81.9082 190.854 81.7248 191.311 81.4502C191.768 81.1756 192.134 80.8097 192.5 80.4438L195.427 77.5167C195.702 77.2422 196.067 77.0591 196.341 76.9674C196.616 76.8758 196.981 76.8754 197.438 76.9663C197.712 77.0574 198.077 77.2398 198.26 77.4224C198.534 77.6962 198.716 78.0615 198.807 78.5184C199.444 80.8022 200.082 83.086 200.81 85.4611L200.17 86.2842C199.622 86.102 199.256 86.1024 198.891 86.1028ZM184.729 84.1984C184.272 84.1075 183.906 84.1079 183.541 84.1082C183.084 84.0173 182.627 84.1092 182.262 84.1096C181.348 84.1105 180.525 84.2027 179.703 84.4777C178.971 84.6612 178.331 84.936 177.692 85.2108C177.143 85.5769 176.503 86.0345 176.137 86.5831C175.771 87.1318 175.496 87.7717 175.404 88.5942C175.403 88.777 175.403 88.9597 175.312 89.0512C175.312 89.234 175.311 89.4167 175.311 89.5995C175.311 90.1478 175.401 90.6046 175.492 91.0614C175.583 91.5182 175.674 91.975 175.948 92.4316C176.13 92.9797 176.495 93.5276 176.769 93.9842C177.042 94.4408 177.59 94.8058 177.955 95.1709C178.503 95.5359 179.051 95.7181 179.691 95.9915L179.874 95.9914C179.691 96.1743 179.416 96.4487 179.142 96.9059C180.329 97.5443 179.233 97.1799 180.695 97.1784C181.06 97.3608 181.425 97.726 181.699 97.9998C180.785 98.0008 179.963 97.9102 179.141 97.6369C178.319 97.3636 177.497 97.0904 176.857 96.6341C176.218 96.1779 175.67 95.6302 175.123 95.0825C174.667 94.4433 174.21 93.8041 174.028 93.0732C173.846 92.5251 173.664 91.9771 173.573 91.3375C173.482 90.6979 173.483 90.1497 173.392 89.5101C173.392 89.3273 173.393 89.1446 173.484 88.8703C173.484 88.6876 173.576 88.4133 173.576 88.2306C173.76 87.1338 174.035 86.3112 174.584 85.5795C174.859 85.1224 175.225 84.7565 175.682 84.2991L176.504 84.3896C177.144 84.1148 176.961 84.2978 177.053 83.658C176.962 83.5667 176.871 83.6582 176.779 83.5669C177.511 83.2007 178.334 82.7429 179.248 82.5592C180.162 82.3755 181.167 82.2831 182.172 82.1907C182.721 82.1901 183.086 82.1897 183.634 82.1892C184.091 82.2801 184.639 82.2795 185.096 82.3704C185.187 82.4617 185.279 82.3702 185.37 82.4615C185.37 82.6443 185.461 82.9183 185.369 83.3753C185.095 83.6497 184.912 84.0154 184.729 84.1984ZM182.615 95.9885C183.163 95.988 183.803 95.8959 184.351 95.7126C185.265 95.5289 186.088 95.2539 187.094 94.796C188.465 94.3377 189.653 94.0623 190.75 94.0612C192.029 94.0599 193.125 94.4242 193.764 95.0632C193.947 95.2458 194.221 95.5197 194.403 95.7022C194.586 95.8848 194.677 96.1589 194.768 96.4329C194.859 96.7069 194.859 96.8897 194.859 97.0725C194.858 97.2552 194.767 97.5295 194.675 97.8037C194.492 98.1694 194.126 98.5353 193.669 98.6271C193.303 98.8103 192.938 98.8106 192.39 98.8112C191.293 98.8123 190.288 99.0875 189.282 99.5455C188.276 100.003 187.271 100.461 186.265 101.102C183.888 102.384 181.602 103.757 178.678 103.394C176.759 103.305 174.932 102.759 173.471 102.029C171.827 101.3 170.366 100.205 169.088 98.9266C168.084 97.9225 167.171 96.6441 166.533 95.4568C165.803 94.1783 165.256 92.7168 164.983 91.3463C164.619 89.8847 164.529 88.5141 164.531 87.052C164.532 86.3209 164.624 85.4984 164.807 84.7672C165.996 84.6746 165.813 84.3093 166.727 84.4911C166.452 85.3138 166.451 86.2276 166.359 87.0501C166.357 88.3294 166.447 89.7 166.72 90.8877C167.084 92.1666 167.54 93.3541 168.178 94.5413C168.817 95.7286 169.547 96.6417 170.551 97.6458C171.647 98.7412 172.925 99.6537 174.386 100.383C175.026 100.657 175.665 100.93 176.396 101.112L176.67 101.386L176.853 101.203C177.583 101.385 178.314 101.567 179.045 101.566C181.421 101.747 183.524 100.557 185.535 99.4579C186.633 98.9085 187.638 98.2678 188.827 97.8097C190.015 97.3516 191.295 96.9848 192.574 96.9834C192.94 96.9831 193.123 96.9829 193.214 96.8914L193.123 96.8001C193.031 96.7088 192.94 96.6175 192.849 96.5263C192.392 96.2526 191.753 95.9791 190.839 95.9801C190.017 95.8895 189.011 96.1647 187.914 96.5313C186.817 96.898 185.903 97.2645 184.898 97.5396C184.624 97.6313 184.258 97.6317 183.984 97.7233L184.075 97.6318L183.254 96.4448C182.889 96.2624 182.797 96.1711 182.615 95.9885ZM165.358 82.7563C165.908 81.2937 166.64 80.0136 167.646 78.8246C168.653 77.6356 169.933 76.5378 171.396 75.6225C173.956 74.1578 177.063 74.3373 180.17 74.6996C182.088 74.789 183.916 74.9699 185.652 74.694C187.206 74.4182 188.76 73.777 190.132 72.4049C190.315 72.2219 190.407 72.3132 190.407 72.3132C190.407 72.3132 190.224 72.3134 189.95 72.2223C185.93 71.1299 182.002 70.1288 178.165 69.2189C177.16 68.9458 176.155 68.6727 175.059 68.4911C175.608 67.9423 175.242 68.1254 175.334 67.3029L175.426 66.6631C176.431 66.9362 177.527 67.1179 178.532 67.391C182.552 68.3006 186.572 69.393 190.408 70.4856C191.322 70.6674 191.779 71.1239 192.052 71.7632C192.417 72.3111 192.142 72.9511 191.41 73.6829C189.764 75.3294 187.935 76.0623 185.925 76.4299C184.005 76.706 182.087 76.6166 180.076 76.4359C177.244 76.1647 174.32 75.985 172.4 77.1749C171.76 77.6324 171.211 77.9985 170.571 78.4561L170.388 78.2735C170.205 78.4565 170.022 78.6394 169.839 78.8224C169.656 79.1881 169.656 79.1881 169.565 79.2795C169.382 79.4625 169.108 79.7369 168.925 79.9199C168.558 80.4685 168.101 81.1086 167.735 81.6573C167.644 81.566 167.37 81.2921 166.822 81.11L165.358 82.7563ZM172.592 67.854C170.856 67.3989 169.029 67.0352 167.202 66.6716C167.111 66.5803 167.202 66.4888 167.111 66.3976C166.472 66.1241 167.02 66.3063 166.289 66.307C164.644 66.3087 165.193 65.5771 163.913 65.944C162.817 65.7623 161.629 65.4894 160.533 65.3078C160.442 64.3027 159.712 63.7552 158.89 63.1164C161.448 63.662 164.006 64.2077 166.473 64.662C167.843 64.9347 169.214 65.2075 170.493 65.5717C170.949 66.2108 171.314 66.9415 172.592 67.854ZM159.528 65.0347C158.614 64.8529 157.701 64.6711 156.787 64.4892C157.427 64.3972 158.249 64.1222 158.798 64.3044C159.071 64.5783 159.345 64.8521 159.528 65.0347ZM154.137 64.0351C152.127 63.6716 150.118 63.3082 148.016 63.0362C148.93 62.8525 150.119 62.2116 150.484 62.2112L152.677 62.0262L152.86 62.026C153.864 63.3957 153.225 63.1222 154.137 64.0351ZM146.92 62.8546C146.28 62.7639 145.549 62.5819 144.818 62.5826L146.099 60.9365C146.556 61.0274 147.196 61.1181 147.652 61.209C147.469 61.3919 147.104 61.5751 146.92 62.3063C146.92 62.4891 146.92 62.6718 146.92 62.8546ZM143.448 62.3099L142.169 62.1284C139.245 61.7659 136.23 61.3121 133.397 61.0409C133.58 60.858 133.306 60.9496 133.124 60.4016C132.575 60.5849 132.21 60.768 132.027 60.951C131.387 60.8602 130.748 60.7695 130.108 60.6788C126.088 60.3174 122.067 59.9561 118.047 59.5947C117.042 59.5043 116.037 59.414 114.94 59.4151L114.849 59.3238C114.666 59.324 114.575 59.4155 114.392 59.4157C111.468 59.2359 108.727 59.056 105.894 58.9676C101.874 58.7889 97.8533 58.6103 93.7413 58.5232C92.919 58.4327 92.005 58.6164 91.2738 58.7999C90.2687 58.7095 89.5373 59.0758 88.8059 59.4421C88.0745 59.8083 87.3429 60.3574 86.794 60.9062C86.2452 61.4551 85.6049 62.0954 85.2386 62.8268C83.0421 66.1187 80.8454 69.5934 78.7402 72.9766L79.0154 71.9711C78.1936 71.3323 78.7415 71.6973 78.2847 71.6064L77.6451 71.5157L77.5539 71.4244C79.4761 68.2241 81.4899 64.9324 83.5949 61.7319C84.0525 61.0918 84.51 60.4517 85.0589 59.9028C85.3329 59.9939 85.5156 59.9937 85.9726 59.9019C86.4296 59.81 86.8864 59.9009 86.887 59.3527C86.8874 58.9872 86.7048 58.8046 86.5222 58.622C86.9794 58.3474 87.5281 57.9813 87.9853 57.7067C88.8081 57.249 89.8136 56.9738 90.8191 56.6986C91.0018 56.6984 91.276 56.6068 91.4588 56.6066C91.3673 56.698 91.2759 56.7895 91.2757 56.9723C90.6348 58.1609 91.0014 57.0639 91.092 57.8863C91.6402 57.8857 91.0001 58.3432 92.0976 57.4283C94.1097 55.7814 91.4584 56.9721 94.4746 56.3293C98.3124 56.5081 102.242 56.5955 106.079 56.7743C110.191 57.0442 114.212 57.2228 118.323 57.4927C122.344 57.854 126.456 58.1239 130.567 58.5766C134.679 59.0293 138.699 59.5734 142.719 60.1175C143.359 60.2082 143.998 60.299 144.638 60.3897L144.728 61.0292L143.448 62.3099ZM75.2619 78.6457L75.0788 79.0114C74.2567 78.7381 74.5307 78.8292 73.5243 80.0182C73.433 79.9269 73.5247 79.6527 73.4332 79.7442C73.3417 79.8356 73.3423 79.2874 73.251 79.1961C73.1599 78.922 73.4338 79.1959 73.1601 78.7393C74.35 76.8191 75.4485 74.9903 76.6384 73.0701C76.8207 73.4355 76.8202 73.9838 76.7283 74.4407C76.2698 75.9947 76.3623 74.9894 76.3606 76.6342C75.5371 77.6403 75.4458 77.549 75.3536 78.3715L75.2619 78.6457ZM73.1565 82.2117L72.4242 83.4918C70.3188 87.0577 68.3961 90.6235 66.3822 94.098C65.8328 95.1951 65.1919 96.3837 64.551 97.5723C64.3683 97.5725 64.1855 97.5727 64.1855 97.5727C63.18 97.8479 63.1799 98.0306 62.9049 98.8533C63.2702 99.0357 63.5442 99.1268 63.727 99.1266L63.1776 100.224C62.3549 100.499 62.3549 100.499 61.9884 101.413C62.0797 101.504 62.2625 101.504 62.5365 101.595C61.9871 102.692 61.4377 103.789 60.8883 104.886C59.1484 108.452 57.4083 112.2 55.7597 115.857L55.3935 116.589C55.2107 116.589 55.6679 116.314 55.0278 116.772C54.4791 117.138 54.113 117.687 53.7469 118.235C54.0197 119.606 53.8369 119.606 54.0195 119.788C52.9205 122.165 52.0042 124.542 50.9965 127.01C50.1721 128.93 49.3477 130.85 48.7061 132.77C48.7061 132.77 48.7063 132.587 48.615 132.496C47.6101 132.223 47.3355 132.68 48.1571 133.501L48.34 133.318C47.6073 134.964 47.0573 136.609 46.416 138.163C45.9577 139.535 45.4081 140.815 44.9498 142.186L43.1218 142.553C44.2197 141.273 45.774 140.449 44.4958 139.353C44.2214 139.628 43.947 139.902 43.8553 140.176C44.2218 139.262 44.4968 138.44 44.8632 137.525C46.3293 133.686 47.8866 129.938 49.3524 126.281C50.9097 122.533 52.4671 118.785 54.1157 115.128L54.4819 114.397C55.3046 114.122 56.768 112.841 56.5866 111.562C56.3125 111.47 55.9468 111.654 55.6726 111.745C56.8633 109.094 58.0537 106.626 59.3357 104.066C61.1671 100.409 62.9984 96.7515 64.9211 93.1857C65.6534 91.9056 66.2945 90.5343 67.0268 89.2542C67.3924 89.2538 67.4838 89.1624 68.0329 88.4308C68.9478 87.3333 68.5817 87.8819 68.3084 87.0598C68.3084 87.0598 68.2169 87.1513 68.1257 87.06C68.9497 85.5057 69.9564 83.9512 70.7805 82.3969C71.3297 81.4825 71.8789 80.5682 72.4281 79.6538C72.4277 80.0193 72.6099 80.5674 72.5177 81.3899L73.1565 82.2117ZM200.976 191.004L199.787 191.828C200.428 190.639 200.519 190.731 200.976 191.004ZM151.968 218.286L151.145 218.744L151.145 218.561C151.146 217.83 151.054 218.652 151.329 217.647L151.968 218.286ZM84.3158 71.6002L88.331 76.896C88.148 77.079 87.8736 77.3534 87.6905 77.7191L86.4136 75.3446L86.871 74.8872C86.2318 74.4309 86.2318 74.4309 86.049 74.4311L84.3158 71.6002ZM89.791 78.9049L111.966 108.398C111.326 108.307 111.234 108.947 110.504 107.851C109.957 106.938 110.779 107.028 108.588 105.386C106.488 103.834 107.492 105.021 105.939 104.383C105.118 103.379 105.666 102.83 105.211 101.642C104.205 101.735 103.291 101.919 102.378 101.737L101.006 103.109L100.185 101.556C100.733 101.373 101.191 101.098 100.461 100.003C100.186 100.094 99.912 100.369 99.5463 100.552L98.2702 97.4462C98.6361 97.0803 98.7279 96.6233 98.6372 95.9837C98.4544 95.9839 98.1804 95.8928 97.723 96.3502L88.6939 79.4543C89.4253 79.088 88.9683 79.1799 89.791 78.9049ZM119.905 118.898L132.042 134.877L131.768 135.151C132.131 136.796 131.675 136.157 132.314 137.344L131.217 137.528C130.577 137.803 130.943 137.619 130.394 138.168C129.753 138.809 129.204 139.54 129.021 140.089C129.66 140.728 129.112 140.545 130.574 140.361C131.671 140.177 132.037 139.446 133.135 137.983C133.501 137.434 133.684 137.251 133.867 137.068L149.664 148.474C149.664 148.657 149.755 148.748 149.664 149.023C149.663 149.936 149.114 150.302 149.387 151.125C149.296 151.216 149.205 151.125 149.113 151.216L147.01 152.224C146.462 152.407 147.193 152.041 146.096 152.59C144.542 153.414 144.451 153.14 142.898 152.502C141.892 153.508 141.343 153.692 141.525 154.971L137.141 152.782C137.05 152.142 137.142 151.503 136.868 151.046C136.321 150.133 134.951 149.86 134.861 148.672L134.68 146.845L133.674 146.937C132.486 147.03 132.76 147.121 132.03 146.756C132.487 146.299 132.853 145.75 133.402 145.384C134.408 144.743 133.858 145.841 134.773 144.743C134.134 144.104 134.317 144.287 133.494 144.379C133.494 144.379 132.855 144.471 132.763 144.562L130.477 145.753L131.39 147.214C131.481 147.305 131.481 147.488 131.481 147.671L132.028 148.767C132.392 149.68 131.661 149.681 131.113 149.681L124.354 146.216L104.837 109.867C106.116 109.683 106.298 110.414 108.033 111.783C109.494 113.06 110.59 113.608 111.045 115.343L111.959 114.977C112.325 114.794 112.142 114.794 112.782 114.519L116.343 117.531L117.531 117.256C118.718 118.26 119.448 118.624 119.905 118.898ZM153.408 151.303L154.504 152.033C154.412 152.125 154.229 152.308 154.046 152.49C154.685 153.129 154.594 153.038 155.325 152.672L155.417 152.763C155.417 152.763 155.508 152.854 155.417 152.946L155.963 154.225C156.238 153.95 156.33 153.676 156.421 153.585L161.626 157.326C161.625 157.691 161.717 157.965 161.807 158.422L160.527 159.886L161.439 161.164C162.719 160.432 163.451 159.517 164.912 160.612C165.002 161.8 164.82 161.069 164.362 162.257C164.453 162.349 164.728 162.257 164.636 162.349L165.458 162.439C165.915 162.53 165.824 162.439 166.281 162.53C166.556 161.524 166.282 161.25 166.465 160.885L174.318 166.542L173.86 167.73C173.677 168.279 173.768 167.822 173.676 168.462L175.959 170.561C175.684 171.018 175.318 171.567 174.769 172.116L171.664 170.474L171.755 170.383C171.025 169.652 170.295 168.922 169.837 169.562L166.823 168.012C167.006 167.829 167.189 167.646 167.372 167.463L167.373 166.915C167.282 165.91 167.1 165.362 167.375 164.356C167.559 163.808 167.467 163.899 167.468 163.534C165.824 162.256 167.103 163.168 166.006 162.987C165.001 162.896 165.367 162.896 164.453 162.349C164.087 163.446 164.36 163.902 163.354 164.726C162.35 163.904 162.533 163.721 161.986 162.625C161.163 163.083 160.797 163.084 159.884 163.084C158.514 161.898 159.701 162.536 158.698 160.984L156.596 160.895L155.407 162.267L154.22 161.445L155.135 160.348C152.854 156.604 152.03 158.706 150.933 158.89C149.746 157.704 150.568 157.977 150.844 156.606C151.12 154.869 152.215 155.599 153.222 154.41C154.137 153.313 153.589 153.131 152.676 152.218L153.408 151.303ZM177.971 169.097L178.884 169.827L177.878 170.65L177.971 169.097ZM179.888 170.466L184.362 173.659C183.722 174.3 184.087 174.482 184.361 174.939C184.91 174.755 185.275 174.572 185.458 174.389L187.376 175.758L186.644 176.672C188.378 178.59 188.104 178.316 189.475 178.223C189.839 179.685 189.748 179.045 190.204 179.867L182.167 175.672L182.35 175.489C182.259 175.398 182.259 175.215 182.168 175.124L182.168 174.941C181.895 173.57 182.26 174.301 181.895 173.57L181.073 173.663L180.889 174.942L178.331 173.665C178.332 173.483 178.332 173.117 178.15 172.386C178.699 171.838 179.522 171.197 179.888 170.466ZM192.306 179.591L194.041 180.777C193.676 180.777 193.127 180.961 192.123 179.956L192.306 179.591ZM194.772 181.324L199.611 184.883L195.227 182.695L195.136 182.603C194.68 181.964 195.045 182.512 194.863 181.964C194.771 181.873 194.863 181.781 194.771 181.69C194.772 181.507 194.772 181.324 194.772 181.324ZM145.817 157.251L144.265 156.43L144.813 155.881C145.544 155.88 146.093 155.514 146.733 155.788C146.549 156.153 146.183 156.702 145.817 157.251ZM90.6319 149.632C90.725 147.895 91.3663 146.341 92.6469 145.061C93.9276 143.78 95.3904 143.047 97.1267 142.954C98.863 142.861 100.325 143.408 101.603 144.686C102.789 145.873 103.427 147.425 103.426 149.07C103.424 150.715 102.783 152.269 101.411 153.641C100.13 154.922 98.6671 155.654 96.9308 155.748C95.1945 155.841 93.7329 155.294 92.4549 154.016C91.2682 152.829 90.5387 151.368 90.6319 149.632ZM97.0192 158.58C99.4866 158.486 101.498 157.571 103.327 155.741C105.157 153.912 106.073 151.718 106.075 149.342C106.078 146.966 105.166 144.774 103.341 142.948C101.515 141.122 99.4139 140.302 96.9466 140.396C94.5707 140.398 92.4679 141.406 90.6385 143.235C88.809 145.065 87.8929 147.259 87.8905 149.635C87.8886 151.462 88.4352 153.106 89.439 154.476C89.8959 154.384 90.3529 154.292 91.1753 154.383C92.2718 154.382 91.2669 154.109 92.2714 154.747C91.8133 155.936 91.5391 156.027 90.6253 156.028C92.4512 157.671 94.5521 158.491 97.0192 158.58ZM102.586 165.611L112.374 155.64L117.76 160.843L118.675 159.929C119.131 160.933 118.948 160.934 119.038 161.939L116.476 165.048C115.928 164.866 115.563 164.866 115.289 164.958L107.97 172.459L109.887 174.376L112.174 172.089C111.992 171.541 112.45 170.901 113.638 170.625L122.145 161.935L112.012 151.986L100.395 163.785C100.577 163.968 100.577 163.968 99.9371 164.608L101.58 166.251C102.22 165.794 102.312 165.702 102.586 165.611ZM122.689 165.956L126.797 170.063L116.277 180.766L118.194 182.683L128.714 171.98L132.822 176.088L133.371 175.539C133.554 175.174 133.554 174.808 133.098 174.535C132.458 174.078 132.549 174.535 131.453 174.353C131.272 172.892 130.723 173.075 130.542 171.613C130.542 171.248 130.543 170.882 130.726 170.516L124.336 164.309L122.689 165.956ZM51.3362 152.048L60.6667 142.535L59.4704 150.669L60.5658 151.764L68.6086 150.477L59.4608 159.99L61.3778 161.907L73.7269 149.375L71.81 147.458L63.1273 149.02C62.9443 149.203 62.5786 149.386 62.1216 149.478C61.7569 148.748 61.8487 148.291 62.4889 147.833L63.7768 139.425L61.7686 137.417L49.4194 149.948L51.3362 152.048ZM65.4858 165.832L69.8739 164L75.8077 169.75L74.0668 174.23L76.1664 176.329L83.1297 158.412L81.2127 156.495L63.2948 163.824L65.4858 165.832ZM79.6556 160.06L76.7237 167.556L72.1595 162.992L79.6556 160.06ZM80.0917 180.255L85.1229 175.041L88.5005 178.418C89.7785 179.696 91.1485 180.335 92.6106 180.333C94.0727 180.332 95.2611 179.874 96.3587 178.776C96.7246 178.41 96.9991 178.136 97.1822 177.77L95.5372 177.954L94.3503 176.95C93.1611 178.14 91.6992 177.958 90.2387 176.498L87.0437 173.303L90.7026 169.644L93.8976 172.839C94.5366 173.478 94.9929 174.117 95.0836 174.756C95.358 174.482 95.5409 174.299 95.7239 174.116L96.8208 173.75C97.0951 173.658 97.278 173.475 97.4609 173.292C97.0962 172.561 96.5487 171.831 95.8184 171.101L93.5362 168.818C93.0791 169.093 93.3529 169.367 92.2562 169.551C91.8916 168.637 92.2575 168.271 92.7147 167.997L90.4325 165.715L78.0834 178.246L80.0917 180.255ZM91.8677 191.848L97.7222 185.811L97.7133 194.4C97.8046 194.492 97.9874 194.491 98.1699 194.674L97.8039 195.223L97.8014 197.599L99.1707 198.968C99.3536 198.785 99.6281 198.51 99.7197 198.236C99.811 198.328 99.9023 198.419 99.8108 198.51C99.7193 198.602 99.9934 198.693 99.9019 198.784C99.9019 198.784 99.9017 198.967 99.993 199.058C100.449 200.063 99.6275 199.059 100.175 199.789L100.086 197.505C98.6228 198.603 98.3501 197.232 98.3502 197.05C98.3502 197.05 97.894 196.411 99.3567 195.861C99.6309 195.769 99.8136 195.769 99.9964 195.769L99.9143 186.722L100.828 186.721C100.828 186.539 100.737 186.447 100.737 186.264C100.738 185.716 100.83 185.076 100.83 185.076C102.201 184.618 102.566 184.801 103.114 185.348C102.839 185.805 102.473 186.354 102.107 186.72L104.209 186.626L104.484 186.352L104.666 186.717L111.428 186.71L108.963 184.246L98.8202 184.347L103.76 179.225L101.843 177.308L95.5311 183.803C95.6224 183.894 95.8052 183.894 96.079 184.168C95.6204 185.904 94.6153 185.814 92.5121 187.187L92.4208 187.095L89.4937 190.023L91.8677 191.848ZM112.776 208.731L111.681 207.636L110.126 209.191C109.122 208.187 109.578 208.643 109.762 207.729C109.853 207.638 109.762 207.547 109.853 207.455L108.85 205.903C108.21 206.177 107.844 206.726 107.478 207.092L110.947 210.561C111.953 209.555 112.593 209.097 112.776 208.731ZM107.755 203.893L105.838 201.976L109.772 198.043L115.432 203.52L117.261 201.691L111.601 196.214L114.711 193.104L117.267 195.66C117.267 195.66 117.359 195.568 117.45 195.659C117.541 195.933 117.724 195.933 117.632 196.025L121.558 199.95L123.387 198.12L120.557 195.291L120.283 195.565C120.1 195.2 119.918 194.834 119.827 194.56L117.088 191.822L116.997 191.73C116.815 191.548 116.632 191.365 116.541 191.274L114.624 189.357L103.281 200.883C103.28 201.248 103.097 201.614 102.731 202.162L106.017 205.449L106.2 205.449C106.84 204.991 107.206 204.625 107.755 203.893ZM123.018 201.41L127.126 205.518L124.199 208.445L124.93 208.262L126.665 209.814L129.135 207.344L129.408 207.618C129.5 207.526 129.683 207.343 129.774 207.252C129.227 205.973 129.409 206.887 129.684 206.064L131.512 206.062L128.134 202.685C127.677 202.959 127.494 202.777 127.403 202.32L127.404 201.954L125.03 199.581L123.018 201.41ZM123.01 209.635L122.186 210.458C123.466 210.091 123.192 210.183 123.01 209.635ZM121.454 211.372L117.155 215.672C117.338 215.854 117.52 216.037 117.886 216.402C117.52 216.585 117.428 216.677 117.337 216.768L118.615 218.046L120.078 216.583C120.17 216.308 120.353 215.943 120.994 215.302L122.183 213.93C122.732 213.564 122.549 213.747 122.823 213.656L125.384 211.094C125.201 211.094 125.11 211.186 124.927 211.186C123.739 211.644 123.738 212.558 123.007 212.559C122.824 212.742 121.728 212.012 121.454 211.372ZM132.969 211.178L133.242 211.452L135.072 209.622L133.155 207.705C132.423 208.072 131.966 208.712 132.331 209.442C132.604 209.899 132.513 209.808 132.695 210.173C132.878 210.538 132.969 210.812 132.969 211.178ZM98.3957 64.2753L100.317 62.3543C100.499 62.5369 100.773 62.628 101.047 62.7191C101.047 62.7191 101.322 62.6274 101.413 62.536L113.645 74.5855L109.533 75.4121L109.259 75.1383C109.808 74.5894 109.624 74.9551 109.442 74.2243C108.803 74.1335 108.986 73.7678 108.528 74.408L105.333 71.213L96.3688 80.3602L95.6385 79.6299C95.9131 79.1727 96.1878 78.7155 96.3707 78.5326C95.7315 78.0763 94.909 78.1686 94.0865 78.2608L93.9039 78.0782L102.045 69.7543C103.141 70.1187 102.224 73.7748 104.968 71.0306L106.338 71.8516L107.527 70.4797C106.705 70.0236 107.253 70.2058 106.797 70.1149L105.883 70.1159L103.874 68.4731C103.417 68.565 103.143 68.6566 102.686 68.7485L98.3957 64.2753ZM127.613 88.1866L129.438 90.0123L127.243 92.2077C127.151 92.2991 126.969 92.2993 126.877 92.3908L126.877 92.5736L118.095 101.538L115.722 99.1644L118.558 96.3287C118.649 96.6028 118.923 96.8766 119.745 97.1499L120.476 97.1491C121.755 96.9651 122.121 96.5992 121.757 95.503C120.843 95.8695 121.208 95.6863 120.293 96.601C119.654 96.1448 119.472 95.9622 119.198 95.8711L124.778 89.9257C124.869 90.1998 124.961 90.1083 124.777 90.6568C124.594 91.388 124.32 91.1141 124.502 92.0277C125.598 91.8438 126.788 90.4719 126.789 89.3754C126.973 87.9131 127.156 88.0957 127.613 88.1866ZM145.87 106.078L149.156 109.364C148.973 109.365 148.791 109.365 148.425 109.365C145.955 111.835 146.594 113.022 149.064 110.37C149.155 110.278 149.338 110.278 149.338 110.278L150.069 110.277L150.434 110.642C149.702 111.374 149.337 111.557 149.61 112.562C150.249 112.836 149.61 112.562 150.249 112.653C152.625 112.833 151.254 113.657 152.625 112.833C152.807 113.381 152.533 113.473 153.172 114.295C153.446 114.203 153.812 114.203 153.903 114.111L155.546 115.754L153.168 118.133L144.769 109.917L141.848 106.996L140.202 108.643L139.653 109.191L150.973 120.328L148.686 122.615L137.366 111.478L136.451 112.393C136.36 112.302 136.36 112.119 136.269 112.028C135.355 112.211 134.532 113.217 134.165 113.766C133.525 114.955 133.982 114.132 133.982 114.68C134.439 114.588 134.713 114.679 135.353 113.856L138.092 116.595L146.49 124.81L144.112 127.189L140.004 123.081C140.096 122.624 140.097 122.076 139.549 121.345C138.36 122.534 139.275 121.437 139.183 122.259L134.344 117.421L132.336 115.413L132.245 115.322C131.149 114.226 131.06 112.855 132.249 111.666L132.98 110.935L135.084 108.831L137.371 106.544L138.194 105.721L140.115 103.8C141.213 102.702 142.584 102.609 143.771 103.796L145.87 106.078ZM177.716 150.547L176.255 149.087C175.89 148.721 175.433 148.448 175.159 148.539C174.245 148.54 173.88 148.358 173.332 148.359L171.047 148.818L175.885 153.656L176.159 153.93L177.804 153.745C178.443 153.653 178.261 153.471 178.717 153.927C178.533 155.207 178.9 154.292 177.527 156.213C176.704 157.219 177.798 159.594 178.436 160.781L178.892 161.237C179.075 161.054 179.349 161.145 179.532 161.145L181.738 148.715L181.555 148.898L180.095 147.438C181.009 146.706 180.003 147.529 180.917 147.163L182.106 146.522L182.565 144.237C181.835 143.872 181.652 143.507 182.749 143.14C182.841 142.5 182.659 141.952 182.202 141.679C182.02 141.679 181.837 141.862 181.471 142.045C180.923 141.68 180.649 141.406 180.467 141.224L177.725 141.775C177.541 142.14 176.993 142.506 177.084 142.963L175.987 142.782L175.896 142.873C175.805 142.599 175.714 142.325 175.714 142.142L168.493 143.52C169.315 144.159 169.498 144.342 169.771 145.529C170.685 145.528 171.05 145.711 171.872 146.35L176.259 145.431L176.168 144.609L177.356 145.065L177.538 145.247L179.001 144.88L178.265 149.45L178.904 150.455C178.72 151.186 178.263 151.643 178.172 151.004L178.264 150.547C177.898 150.547 177.807 150.456 177.716 150.547ZM163.832 144.348L162.004 144.715L164.925 147.636L169.952 146.626C169.313 146.17 169.77 145.895 168.765 145.987L167.395 145.349C166.664 145.533 167.03 144.618 166.391 144.711L165.568 144.985C165.203 144.62 164.472 144.438 163.832 144.348ZM197.698 179.677L194.411 176.573L194.969 167.252C194.969 167.069 195.061 166.978 195.061 166.795L190.121 171.734L189.939 171.552C189.847 171.643 189.665 171.643 189.573 171.735L187.473 169.635L192.596 164.33C192.505 164.422 192.322 164.422 192.139 164.422L187.022 164.793C187.022 164.61 187.022 164.61 187.022 164.427L186.291 164.245L186.108 164.245L185.469 164.155C186.567 162.874 187.755 162.233 187.208 161.32L190.406 161.043L190.593 157.022C190.868 156.747 190.96 156.29 190.595 155.925L190.966 150.259L194.161 153.454L193.603 162.776C193.603 162.958 193.511 163.05 193.511 163.233L195.615 161.129C195.706 161.403 195.797 161.677 195.98 161.859L197.443 160.761C198.539 161.674 197.991 161.492 198.904 161.308C198.997 160.486 199.27 160.942 198.266 159.938C197.901 159.573 197.536 159.39 197.353 159.208L197.445 159.116L198.634 157.927L201.007 160.301L195.885 165.606C195.976 165.515 196.159 165.514 196.342 165.514L199.175 165.237C199.266 165.328 199.174 165.42 199.266 165.511C199.722 165.602 199.722 165.968 200.271 165.236L200.363 165.144L204.018 164.958C204.017 165.506 204.84 165.78 206.119 165.595L207.397 166.691L208.767 168.06L205.202 168.338L204.746 167.881C204.654 168.156 204.563 168.247 204.471 168.339L198.348 168.984L197.698 179.677ZM185.011 165.16L183 165.345L181.814 164.158C182.088 163.701 182.363 163.061 182.637 162.787L183.004 161.873L185.38 161.688C185.288 161.779 185.106 161.962 184.923 162.145C184.556 163.607 184.737 164.521 185.011 165.16ZM137.472 97.8627L125.777 95.8644C124.589 95.5914 123.583 96.7804 123.765 97.8768L126.037 109.48L130.328 113.77L127.601 99.7004L135.092 100.972C135.001 100.881 135.001 100.881 134.91 100.789L135.916 100.149C136.281 100.697 136.281 100.697 136.098 101.062L141.853 102.062L137.472 97.8627ZM161.822 144.532L162.19 142.339C162.007 142.156 161.824 141.974 161.459 141.791C160.82 141.518 159.997 141.976 159.266 141.976L161.822 144.532ZM163.017 137.861L165.131 125.888C165.406 124.699 164.219 123.695 163.122 123.879L150.144 126.451C150.144 126.634 150.143 126.817 149.869 127.274C149.321 127.275 148.955 127.092 148.773 126.727L144.751 127.462L147.307 130.018C147.856 130.018 148.221 130.017 148.495 130.291L152.608 129.464C152.426 128.916 153.066 127.91 154.162 128.458C154.071 128.732 154.162 128.823 153.979 129.189L161.474 127.719L159.543 138.595C160.274 138.777 161.188 138.411 163.017 137.861ZM113.723 87.6526L111.076 85.0054L106.963 85.832L111.801 90.6701L112.897 91.7656L112.162 95.787L115.083 98.7081L118.3 80.3376C117.843 80.4294 117.386 80.5213 116.655 80.1565C116.838 79.7908 117.113 79.1509 117.662 78.602C117.297 78.4196 116.931 78.2372 116.383 78.4206L97.9205 82.0948L100.842 85.0159L110.804 83.0867C111.627 82.0807 112.451 81.0746 113.182 80.8911C113.364 81.4392 113.089 82.0791 112.723 82.6278L114.551 82.2604L113.723 87.6526ZM147.008 154.599L148.012 155.604L149.933 153.317C150.116 153.134 150.391 152.677 150.665 152.403L149.022 150.942C148.473 152.039 149.204 151.673 148.563 152.679C148.106 153.319 147.374 153.868 147.008 154.599ZM160.729 140.513L162.374 140.511C162.284 139.141 162.741 139.597 161.645 138.319C159.725 140.057 161.097 138.685 160.729 140.513ZM165.308 219.551C166.13 219.825 165.581 220.374 167.32 218.453C166.863 218.362 166.406 217.905 165.767 218.18C164.121 218.913 165.126 219.369 165.308 219.551ZM107.579 108.95C108.86 107.67 108.768 108.309 107.581 106.94C106.392 108.312 106.301 107.672 107.579 108.95ZM126.733 232.384C127.371 233.754 128.194 233.662 128.561 232.2C128.013 232.017 127.281 232.201 126.733 232.384ZM74.3141 200.273C75.2272 201.003 74.8613 201.369 74.221 202.009C73.6719 202.741 72.6653 204.112 71.9343 204.113C70.198 204.206 73.9482 200.639 74.3141 200.273ZM77.9629 206.483C78.0536 207.122 78.1453 206.848 77.505 207.488L76.7749 206.575C77.5063 206.209 77.5063 206.209 77.9629 206.483ZM66.2784 194.798L67.0089 195.346L66.3685 195.986C65.6381 195.439 65.7294 195.53 66.2784 194.798ZM119.51 235.773C119.875 236.321 120.148 237.326 119.508 238.149C117.955 237.511 117.682 236.323 119.51 235.773ZM53.2585 148.848C53.4405 149.579 53.7153 148.939 53.2575 149.762C52.6168 150.767 52.3432 150.311 52.2517 150.402C52.0697 149.671 51.7034 150.403 52.2526 149.489C52.7106 148.483 52.9843 148.939 53.2585 148.848ZM42.9608 121.536C43.6003 121.627 43.0526 121.079 43.6001 121.809L43.7825 122.175C44.2382 123.362 43.4168 122.358 45.5164 124.457C43.7791 125.464 42.4104 123.547 42.9608 121.536ZM120.738 197.301C119.186 195.749 123.023 196.293 120.738 197.301V197.301ZM46.6169 120.618C46.9809 122.08 46.2499 122.081 45.6101 122.173C45.3366 121.534 44.8789 122.356 45.6111 121.259C46.0688 120.436 46.1599 120.71 46.6169 120.618ZM91.0015 145.611C90.8201 144.332 91.5517 143.782 92.6486 143.416C92.7399 143.507 93.5617 144.146 91.7328 145.427C91.1841 145.793 91.4585 145.519 91.0015 145.611ZM58.7059 94.4714C58.7974 94.38 58.8887 94.4712 58.9802 94.3798C59.0709 95.0193 59.0714 94.4711 58.9794 95.1108L58.5203 97.213C58.1548 97.2134 58.0635 97.1221 57.698 97.1225L57.5153 97.1227L56.7842 97.1234C56.5109 96.3013 56.785 96.3924 56.3289 95.5704L58.7059 94.4714ZM121.255 138.543C119.978 137.082 122.08 136.075 122.172 135.984C123.177 135.708 125.185 138.082 124.91 139.27C124.726 140.002 124.635 139.91 123.995 140.551C123.355 140.277 121.986 139.274 121.255 138.543ZM127.376 140.821C127.376 140.09 127.925 140.09 128.198 140.729C128.198 140.729 128.928 141.277 127.741 141.187C127.284 141.278 127.375 141.37 127.376 140.821ZM122.448 134.247C121.443 134.34 121.351 134.248 120.895 133.244C121.353 132.786 121.718 132.786 122.175 133.242C122.905 133.973 122.54 133.79 122.448 134.247ZM119.619 130.138C119.801 131.052 120.167 130.503 119.344 130.961C119.344 130.961 118.43 131.327 118.888 130.322C119.071 129.773 119.345 130.047 119.619 130.138ZM140.524 150.86C139.703 149.49 141.166 148.574 141.988 148.482C142.627 149.487 141.621 150.31 140.524 150.86ZM134.226 143.647L134.318 143.556C134.318 143.556 134.409 143.464 134.5 143.555C135.872 142.914 135.962 143.554 136.236 143.828C135.87 144.194 136.053 144.376 134.865 144.469C133.311 144.562 134.043 144.196 133.951 144.104L134.226 143.647ZM123.182 130.774C124.007 129.037 123.914 129.859 124.92 129.402C125.926 128.944 125.652 128.304 126.932 128.12C127.205 128.942 127.571 128.211 126.565 129.583C125.192 131.137 124.552 131.412 123.182 130.774ZM141.443 145.741C142.175 144.644 142.357 145.192 142.722 145.923C141.991 146.289 142.082 146.38 141.443 145.741ZM146.465 148.934C146.1 148.387 146.009 148.295 146.467 147.655L147.471 148.294C146.922 148.843 146.922 148.843 146.465 148.934ZM199.779 199.138C198.958 198.134 199.69 197.402 200.785 198.498L199.779 199.138ZM73.5407 64.1182C72.7187 63.6621 73.4503 63.1131 74.1823 62.1985C75.0058 61.1925 75.0976 60.7355 76.0105 61.6484C75.3696 62.837 74.546 64.0257 73.5407 64.1182ZM128.328 102.989C128.145 103.721 128.511 103.355 127.871 103.629C127.414 103.539 127.87 104.36 127.414 103.356C127.323 103.082 127.323 103.082 127.506 102.899C127.78 102.624 127.963 102.807 128.328 102.989ZM138.464 110.381C137.734 109.65 137.825 109.559 138.648 108.553C139.38 107.821 139.655 107.547 140.293 108.368L138.464 110.381ZM190.959 157.387C191.965 156.563 193.608 158.389 193.333 159.029C192.875 159.852 191.232 158.026 190.959 157.387ZM202.828 167.426C202.28 166.33 202.921 165.69 204.017 165.872C204.199 166.968 203.924 167.243 202.828 167.426ZM218.355 174.355C219.086 174.355 219.085 174.903 218.445 175.178C218.445 175.178 217.896 175.909 217.989 174.721C217.898 174.264 217.898 174.264 218.355 174.355ZM217.452 163.391C217.271 162.294 218.094 161.471 219.099 161.196C219.373 162.018 219.739 161.469 218.732 162.658C218.092 163.481 217.635 163.208 217.452 163.391ZM216.64 153.614C215.363 151.605 216.735 150.415 217.374 150.689L217.738 152.151C217.737 153.064 217.463 153.156 216.64 153.614ZM216.024 130.678C218.583 130.31 216.938 130.129 218.401 129.762C219.131 130.675 218.491 131.133 217.576 132.23C216.478 133.328 216.296 132.962 215.292 131.958L216.024 130.678ZM188.497 62.9031C189.046 62.537 189.229 62.7196 189.959 63.2671C190.872 64.18 190.507 63.9976 190.597 64.4544C189.958 64.5464 190.231 65.003 189.136 64.0904C188.223 63.3603 188.588 63.3599 188.497 62.9031Z" fill="white"/>
</svg>
