<svg width="0" height="0" class="hidden">
  <symbol xmlns="http://www.w3.org/2000/svg" viewBox="0 0 17 17" id="phone">
    <path d="M16.964 13.172c-.048-.145-.354-.359-.918-.64a28.21 28.21 0 00-.651-.362 60.771 60.771 0 01-.767-.423c-.23-.129-.445-.253-.646-.374a16.76 16.76 0 00-.302-.211 3.399 3.399 0 00-.429-.26.79.79 0 00-.344-.084c-.161 0-.362.114-.604.344-.24.23-.462.478-.663.748a7.34 7.34 0 01-.64.749c-.226.23-.41.344-.556.344a.822.822 0 01-.271-.06 2.808 2.808 0 01-.248-.103 4.516 4.516 0 01-.29-.169 7.565 7.565 0 00-.23-.139c-1.102-.612-2.048-1.312-2.837-2.1-.788-.79-1.489-1.735-2.1-2.838a6.992 6.992 0 00-.14-.23 4.352 4.352 0 01-.169-.29 2.618 2.618 0 01-.102-.247.817.817 0 01-.06-.271c0-.145.114-.33.344-.556.23-.225.479-.439.748-.64.27-.2.52-.422.749-.664.23-.241.344-.442.344-.603a.788.788 0 00-.084-.344 3.357 3.357 0 00-.26-.429c-.117-.169-.187-.27-.212-.302-.12-.2-.245-.416-.374-.646a51.42 51.42 0 01-.422-.766 28.695 28.695 0 00-.363-.652c-.281-.564-.494-.87-.64-.918A.676.676 0 003.575 0c-.217 0-.501.04-.851.12-.35.081-.626.166-.827.254-.403.17-.83.66-1.28 1.473C.206 2.604 0 3.352 0 4.093c0 .217.014.428.042.634.028.205.079.436.151.694.073.257.131.449.175.573.044.125.127.348.248.67.12.322.193.52.217.592.282.789.616 1.493 1.002 2.113.636 1.03 1.503 2.095 2.602 3.194 1.099 1.097 2.163 1.964 3.193 2.6.62.387 1.324.72 2.113 1.002.072.024.27.097.591.218.322.12.546.203.67.247.125.045.316.103.574.176a4.54 4.54 0 001.328.193c.74 0 1.49-.205 2.246-.616.813-.45 1.304-.877 1.473-1.28a4.76 4.76 0 00.253-.827c.08-.35.121-.633.121-.85a.673.673 0 00-.036-.255z" fill="currentColor"></path>
  </symbol>
  <symbol xmlns="http://www.w3.org/2000/svg" viewBox="0 0 17 8" id="arrow">
    <path d="M16.3536 4.35355C16.5488 4.15829 16.5488 3.84171 16.3536 3.64645L13.1716 0.464465C12.9763 0.269203 12.6597 0.269203 12.4645 0.464465C12.2692 0.659727 12.2692 0.97631 12.4645 1.17157L15.2929 4L12.4645 6.82843C12.2692 7.02369 12.2692 7.34027 12.4645 7.53553C12.6597 7.73079 12.9763 7.73079 13.1716 7.53553L16.3536 4.35355ZM4.37114e-08 4.5L16 4.5L16 3.5L-4.37114e-08 3.5L4.37114e-08 4.5Z" fill="currentColor"></path>
  </symbol>
  <symbol xmlns="http://www.w3.org/2000/svg" viewBox="0 0 15 15" id="clock">
    <path d="M7.5 0C3.3645 0 0 3.3645 0 7.5C0 11.6355 3.3645 15 7.5 15C11.6355 15 15 11.6355 15 7.5C15 3.3645 11.6355 0 7.5 0ZM7.5 13.4041C4.24449 13.4041 1.59572 10.7557 1.59572 7.5C1.59572 4.24434 4.24449 1.59587 7.5 1.59587C10.7555 1.59587 13.4043 4.24434 13.4043 7.5C13.4043 10.7557 10.7555 13.4041 7.5 13.4041Z" fill="currentColor"></path>
    <path d="M11.4087 7.26844H8.03818V3.21585C8.03818 2.87482 7.76167 2.59831 7.42064 2.59831C7.0796 2.59831 6.8031 2.87482 6.8031 3.21585V7.88598C6.8031 8.22702 7.0796 8.50352 7.42064 8.50352H11.4087C11.7497 8.50352 12.0262 8.22702 12.0262 7.88598C12.0262 7.54495 11.7497 7.26844 11.4087 7.26844Z" fill="currentColor"></path>
  </symbol>
  <symbol xmlns="http://www.w3.org/2000/svg" viewBox="0 0 34 34" id="location">
    <path d="M16.9995 0C10.0981 0 4.48271 5.61534 4.48271 12.5174C4.48271 14.3178 4.8512 16.0367 5.57739 17.6268C8.70692 24.475 14.7071 31.7052 16.4719 33.7578C16.6042 33.9113 16.7969 33.9997 16.9998 33.9997C17.2027 33.9997 17.3954 33.9113 17.5277 33.7578C19.2918 31.7056 25.292 24.4757 28.4226 17.6268C29.1491 16.0367 29.5172 14.3178 29.5172 12.5174C29.5165 5.61534 23.9012 0 16.9995 0ZM16.9995 19.019C13.4144 19.019 10.4975 16.1021 10.4975 12.5171C10.4975 8.93173 13.4144 6.0148 16.9995 6.0148C20.5845 6.0148 23.5014 8.93173 23.5014 12.5171C23.5017 16.1021 20.5848 19.019 16.9995 19.019Z" fill="currentColor"></path>
  </symbol>
  <symbol xmlns="http://www.w3.org/2000/svg" viewBox="0 0 15 15" id="paper-plane">
    <g clip-path="url(#clip0)">
      <path d="M5.46875 11.0076V13.9063C5.46875 14.1088 5.59875 14.2882 5.79125 14.352C5.83937 14.3676 5.88875 14.3751 5.9375 14.3751C6.08375 14.3751 6.225 14.3063 6.315 14.1838L8.01062 11.8763L5.46875 11.0076Z" fill="currentColor"></path>
      <path d="M14.8027 0.0860912C14.659 -0.0157839 14.4702 -0.0295339 14.314 0.0523411L0.251476 7.39609C0.0852256 7.48297 -0.0128995 7.66047 0.000850553 7.84734C0.0152256 8.03484 0.139601 8.19484 0.316476 8.25547L4.22585 9.59172L12.5515 2.47297L6.10898 10.2348L12.6609 12.4742C12.7096 12.4905 12.7609 12.4992 12.8121 12.4992C12.8971 12.4992 12.9815 12.4761 13.0559 12.4311C13.1746 12.3586 13.2552 12.2367 13.2759 12.0998L14.9946 0.537341C15.0202 0.362341 14.9465 0.188591 14.8027 0.0860912Z" fill="currentColor"></path>
    </g>
    <defs>
      <clipPath id="clip0">
        <rect width="15" height="15" fill="white"></rect>
      </clipPath>
    </defs>
  </symbol>
    <symbol xmlns="http://www.w3.org/2000/svg" viewBox="0 0 12 12" id="review-icon">
    <g clip-path="url(#clip0)">
      <path d="M9.857 5.99997C9.62031 5.99997 9.42843 6.19184 9.42843 6.42854V10.7142C9.42843 10.9509 9.23656 11.1428 8.99986 11.1428H1.2857C1.049 11.1428 0.857123 10.9509 0.857123 10.7142V2.14287C0.857123 1.90618 1.049 1.7143 1.2857 1.7143H6.42849C6.66519 1.7143 6.85706 1.52243 6.85706 1.28573C6.85706 1.04903 6.66519 0.857178 6.42849 0.857178H1.2857C0.575626 0.857178 0 1.4328 0 2.14287V10.7142C0 11.4243 0.575626 11.9999 1.2857 11.9999H8.99988C9.70995 11.9999 10.2856 11.4243 10.2856 10.7142V6.42852C10.2856 6.19184 10.0937 5.99997 9.857 5.99997Z" fill="currentColor"></path>
      <path d="M11.5203 0.480708C11.2125 0.172945 10.7952 7.86281e-05 10.36 0.000128851C9.92451 -0.00112671 9.5067 0.172041 9.19984 0.480985L3.55475 6.1256C3.50792 6.17278 3.47259 6.23014 3.45147 6.29317L2.59435 8.86456C2.51954 9.08913 2.64095 9.33181 2.86552 9.40659C2.90909 9.4211 2.95472 9.42851 3.00062 9.42856C3.04663 9.42848 3.09235 9.4211 3.13605 9.40671L5.70744 8.54959C5.7706 8.5285 5.82798 8.49299 5.87501 8.44588L11.5201 2.80081C12.1608 2.16018 12.1609 1.12142 11.5203 0.480708ZM10.9141 2.19523L5.34273 7.76659L3.67818 8.32243L4.23231 6.66002L9.8058 1.08868C10.1122 0.782872 10.6085 0.783375 10.9143 1.08978C11.0604 1.23616 11.1427 1.43431 11.1434 1.6411C11.1439 1.849 11.0613 2.04848 10.9141 2.19523Z" fill="currentColor"></path>
    </g>
    <defs>
      <clipPath id="clip0">
        <rect width="12" height="12" fill="white"></rect>
      </clipPath>
    </defs>
  </symbol>
</svg>