<svg width="0" height="0" class="hidden">
  <symbol xmlns="http://www.w3.org/2000/svg" viewBox="0 0 41 41" id="approved">
    <g clip-path="url(#clip0)">
      <path d="M29.896 18.792c-6.123 0-11.105 4.981-11.105 11.104C18.791 36.019 23.773 41 29.896 41 36.018 41 41 36.02 41 29.896c0-6.123-4.982-11.104-11.104-11.104zm5.555 8.386l-5.979 6.833a1.707 1.707 0 01-2.492.082l-3.417-3.416a1.706 1.706 0 010-2.416 1.707 1.707 0 012.416 0l2.125 2.125 4.776-5.46a1.71 1.71 0 012.41-.16 1.71 1.71 0 01.161 2.412z"></path>
      <path d="M35.875 0H23.917a6.878 6.878 0 00-4.955 2.135L1.401 20.398A5.093 5.093 0 000 23.916a5.05 5.05 0 001.503 3.621l11.959 11.959A5.05 5.05 0 0017.083 41c.94 0 1.862-.256 2.648-.735a14.945 14.945 0 01-2.204-2.767c-.58.17-1.23.017-1.657-.41L3.912 25.13a1.69 1.69 0 01-.495-1.213c0-.445.17-.855.46-1.162L21.44 4.493a3.322 3.322 0 012.477-1.076h11.958c.94 0 1.708.768 1.708 1.708v11.958c0 .154-.017.325-.034.479a14.2 14.2 0 012.836 2.306c.41-.871.615-1.828.615-2.785V5.125C41 2.306 38.694 0 35.875 0z"></path>
      <path d="M32.458 11.958a3.42 3.42 0 01-3.416-3.416 3.42 3.42 0 013.416-3.417 3.42 3.42 0 013.417 3.417 3.42 3.42 0 01-3.417 3.416z"></path>
    </g>
    <defs>
      <clipPath id="clip0">
        <path d="M0 0h41v41H0z"></path>
      </clipPath>
    </defs>
  </symbol>
  <symbol xmlns="http://www.w3.org/2000/svg" viewBox="0 0 50 50" id="best-seller">
    <path d="M19.228 22.416h2.059v6.404c0 .652.55 1.18 1.227 1.18h5.259C28.45 30 29 29.472 29 28.82V16.18c0-.652-.55-1.18-1.227-1.18h-4.601c-.387 0-.75.175-.982.472l-3.944 5.056c-.607.767-.02 1.894.982 1.888z"></path>
    <path d="M47.326 27.407l-2.928-1.711a4.958 4.958 0 00-.82-.383c2.145-.552 3.736-2.522 3.736-4.863v-3.422c0-.753-.603-1.364-1.348-1.364h-3.38c-.307 0-.607.03-.899.085a5.06 5.06 0 00.833-6.104l-1.69-2.963a1.339 1.339 0 00-1.84-.5l-2.928 1.712c-2.366 1.383-3.18 4.457-1.815 6.853l1.69 2.963a12.897 12.897 0 011.693 6.378v.019c-.7 16.96-24.567 16.947-25.26 0v-.019a12.897 12.897 0 011.692-6.378l1.69-2.963c1.367-2.396.552-5.47-1.814-6.853L11.01 6.183a1.339 1.339 0 00-1.84.5L7.48 9.644a5.06 5.06 0 00.833 6.104 4.903 4.903 0 00-.9-.085h-3.38c-.744 0-1.347.611-1.347 1.364v3.422c0 2.34 1.591 4.311 3.736 4.863-.28.1-.554.227-.82.383l-2.928 1.71a1.373 1.373 0 00-.493 1.864l1.69 2.963a4.928 4.928 0 005.637 2.322 5.027 5.027 0 00-.521.746l-1.69 2.963a1.373 1.373 0 00.494 1.863l2.927 1.711c2.374 1.388 5.402.563 6.77-1.836l1.047-1.836a15.03 15.03 0 003.5 1.158l-2.318 2.347a1.376 1.376 0 000 1.93c.526.532 1.38.532 1.905 0L25 40.18l3.378 3.42a1.336 1.336 0 001.905 0 1.376 1.376 0 000-1.93l-2.318-2.347a15.074 15.074 0 003.5-1.157l1.047 1.835c1.368 2.4 4.396 3.224 6.77 1.836l2.928-1.71a1.374 1.374 0 00.493-1.864l-1.69-2.963a5.026 5.026 0 00-.521-.746 4.928 4.928 0 005.637-2.322l1.69-2.963a1.373 1.373 0 00-.493-1.863z"></path>
  </symbol>
  <symbol xmlns="http://www.w3.org/2000/svg" viewBox="0 0 48 34" id="delivery-package">
    <path d="M23.923 10.574v19.78l15.747-2.989v-9.637c0-.404.352-.717.752-.671l1.938.3c.34.039.598.327.598.67v11.196a.675.675 0 01-.534.66L25.186 33.59a6.079 6.079 0 01-2.528.006L5.605 30.009a.675.675 0 01-.536-.644l-.295-11.37a.675.675 0 01.616-.69l14.486-1.273a.675.675 0 00.565-.415l2.182-5.3c.282-.684 1.3-.483 1.3.257zM4.61 4.098L.065 13.814a.675.675 0 00.68.958l17.07-1.725a.675.675 0 00.55-.398L23.858.274 5.1 3.72a.675.675 0 00-.49.378zM23.858.274l5.812 12.762a.675.675 0 00.56.393l17.04 1.37a.675.675 0 00.668-.953l-4.444-9.742A.675.675 0 0043 3.72L23.858.274z"></path>
  </symbol>
  <symbol xmlns="http://www.w3.org/2000/svg" viewBox="0 0 29 45" id="hook">
    <path d="M28.361 8.8L25.55 1.767A2.813 2.813 0 0022.938 0H6.063C4.913 0 3.878.7 3.45 1.768L.64 8.8a2.81 2.81 0 000 2.09l2.812 7.03a2.813 2.813 0 002.612 1.768H7.47a2.813 2.813 0 002.812 2.813h1.407v1.08c0 3.345 1.83 6.399 4.66 7.782a4.196 4.196 0 012.37 3.794c0 2.247-1.971 4.219-4.219 4.219a4.223 4.223 0 01-4.218-4.219 2.813 2.813 0 00-5.625 0C4.656 40.584 9.072 45 14.5 45c5.336 0 9.845-4.508 9.845-9.844a9.783 9.783 0 00-5.526-8.848c-.915-.447-1.505-1.517-1.505-2.728V22.5h1.406a2.813 2.813 0 002.812-2.813h1.407c1.15 0 2.184-.7 2.611-1.768l2.813-7.03a2.81 2.81 0 000-2.09zM7.939 15.468H4.973l3.75-11.25h2.965l-3.75 11.25zm6.17 0h-2.965l3.75-11.25h2.965l-3.75 11.25zm6.17 0h-2.965l3.75-11.25h2.965l-3.75 11.25z"></path>
  </symbol>
</svg>